<?xml version="1.0" encoding="UTF-8" standalone="no"?>
<!-- Created with Inkscape (http://www.inkscape.org/) -->

<svg
   xmlns:dc="http://purl.org/dc/elements/1.1/"
   xmlns:cc="http://creativecommons.org/ns#"
   xmlns:rdf="http://www.w3.org/1999/02/22-rdf-syntax-ns#"
   xmlns:svg="http://www.w3.org/2000/svg"
   xmlns="http://www.w3.org/2000/svg"
   xmlns:sodipodi="http://sodipodi.sourceforge.net/DTD/sodipodi-0.dtd"
   xmlns:inkscape="http://www.inkscape.org/namespaces/inkscape"
   width="7.8730106mm"
   height="6.8825445mm"
   viewBox="0 0 7.8730105 6.8825446"
   version="1.1"
   id="svg7928"
   inkscape:version="0.92.2 (5c3e80d, 2017-08-06)"
   sodipodi:docname="d-alert.svg">
  <defs
     id="defs7922" />
  <sodipodi:namedview
     id="base"
     pagecolor="#ffffff"
     bordercolor="#666666"
     borderopacity="1.0"
     inkscape:pageopacity="0.0"
     inkscape:pageshadow="2"
     inkscape:zoom="7.9195959"
     inkscape:cx="-14.296159"
     inkscape:cy="-0.46570015"
     inkscape:document-units="mm"
     inkscape:current-layer="layer5"
     showgrid="false"
     fit-margin-top="0"
     fit-margin-left="0"
     fit-margin-right="0"
     fit-margin-bottom="0"
     inkscape:window-width="1680"
     inkscape:window-height="987"
     inkscape:window-x="-8"
     inkscape:window-y="-8"
     inkscape:window-maximized="1" />
  <metadata
     id="metadata7925">
    <rdf:RDF>
      <cc:Work
         rdf:about="">
        <dc:format>image/svg+xml</dc:format>
        <dc:type
           rdf:resource="http://purl.org/dc/dcmitype/StillImage" />
        <dc:title />
      </cc:Work>
    </rdf:RDF>
  </metadata>
  <g
     inkscape:groupmode="layer"
     id="layer5"
     inkscape:label="alert"
     style="display:inline">
    <path
       id="path4-8"
       d="m 4.2950871,1.9229962 a 0.30052873,0.30052873 0 0 1 -0.30053,0.30293 0.47409611,0.47409611 0 0 0 -0.47329,0.4733 0.30093174,0.30093174 0 0 1 -0.601863,0 1.0759571,1.0759571 0 0 1 1.075153,-1.07756 0.30052873,0.30052873 0 0 1 0.30053,0.30133 z m 1.89397,0.77381 a 2.1993238,2.1993238 0 0 1 -0.9289,1.7927302 0.15428212,0.15428212 0 0 0 -0.0675,0.12456 v 0.8035499 a 0.60105745,0.60105745 0 0 1 -0.51187,0.59383 v 0.23222 a 0.27481504,0.27481504 0 0 1 -0.27481,0.2748101 h -0.82364 A 0.27481504,0.27481504 0 0 1 3.3099271,6.2436963 V 6.0106664 a 0.60105745,0.60105745 0 0 1 -0.511873,-0.59382 V 4.6132862 a 0.15588923,0.15588923 0 0 0 -0.0683,-0.1253498 2.1945025,2.1945025 0 0 1 1.109713,-3.98080024 2.1768242,2.1768242 0 0 1 1.65211,0.58498004 2.202538,2.202538 0 0 1 0.69748,1.60469 z m -0.60186,0 a 1.593445,1.593445 0 0 0 -1.59184,-1.59585 q -0.0571,0 -0.1149,0 a 1.6071054,1.6071054 0 0 0 -1.470513,1.42872 1.5829989,1.5829989 0 0 0 0.66535,1.4680902 0.75855375,0.75855375 0 0 1 0.321423,0.61633 v 0.22499 h 1.1989 v -0.22499 a 0.75614316,0.75614316 0 0 1 0.32142,-0.6155301 1.5974628,1.5974628 0 0 0 0.67097,-1.3017601 z m 2.001666,-0.30053 h -0.58258 a 0.30093137,0.30093137 0 0 0 0,0.6018601 h 0.58258 a 0.30093137,0.30093137 0 0 0 0,-0.6018601 z m -0.80837,1.5171202 a 0.30086946,0.30086946 0 0 0 -0.425106,0.4258799 l 0.409836,0.4122201 a 0.30057836,0.30057836 0 0 0 0.42508,-0.4250802 z m -0.21216,-2.3463802 a 0.29972516,0.29972516 0 0 0 0.21296,-0.0884 l 0.41142,-0.41141 A 0.30143164,0.30143164 0 1 0 6.7652231,0.64212616 L 6.3553871,1.0535362 a 0.30052873,0.30052873 0 0 0 0.212946,0.51347 z m -5.3693392,1.12979 a 0.30052873,0.30052873 0 0 0 -0.29971996,-0.30053 h -0.583385 a 0.30093137,0.30093137 0 0 0 0,0.6018601 h 0.583385 A 0.30052873,0.30052873 0 0 0 1.1989939,2.6968062 Z m 0.13821,-1.12979 a 0.30052873,0.30052873 0 0 0 0.21294,-0.51347 L 1.1403339,0.64213616 A 0.30057886,0.30057886 0 1 0 0.71525494,1.0672162 l 0.41141896,0.41141 a 0.29972516,0.29972516 0 0 0 0.21053,0.0884 z m -0.21214,2.3463802 -0.41221596,0.41222 a 0.30171432,0.30171432 0 0 0 0.42748596,0.42588 l 0.40981,-0.4122201 a 0.3008612,0.3008612 0 0 0 -0.42508,-0.4258799 z"
       inkscape:connector-curvature="0"
       style="fill:#999999;stroke-width:0.08035526" />
  </g>
</svg>
