<?xml version="1.0" encoding="UTF-8" standalone="no"?>
<!-- Created with Inkscape (http://www.inkscape.org/) -->

<svg
   xmlns:dc="http://purl.org/dc/elements/1.1/"
   xmlns:cc="http://creativecommons.org/ns#"
   xmlns:rdf="http://www.w3.org/1999/02/22-rdf-syntax-ns#"
   xmlns:svg="http://www.w3.org/2000/svg"
   xmlns="http://www.w3.org/2000/svg"
   xmlns:sodipodi="http://sodipodi.sourceforge.net/DTD/sodipodi-0.dtd"
   xmlns:inkscape="http://www.inkscape.org/namespaces/inkscape"
   width="7.8730106mm"
   height="6.8825445mm"
   viewBox="0 0 7.8730105 6.8825446"
   version="1.1"
   id="svg7928"
   inkscape:version="0.92.2 (5c3e80d, 2017-08-06)"
   sodipodi:docname="d-fuel.svg">
  <defs
     id="defs7922" />
  <sodipodi:namedview
     id="base"
     pagecolor="#ffffff"
     bordercolor="#666666"
     borderopacity="1.0"
     inkscape:pageopacity="0.0"
     inkscape:pageshadow="2"
     inkscape:zoom="7.9195959"
     inkscape:cx="-14.296159"
     inkscape:cy="-0.46570015"
     inkscape:document-units="mm"
     inkscape:current-layer="layer6"
     showgrid="false"
     fit-margin-top="0"
     fit-margin-left="0"
     fit-margin-right="0"
     fit-margin-bottom="0"
     inkscape:window-width="1680"
     inkscape:window-height="987"
     inkscape:window-x="-8"
     inkscape:window-y="-8"
     inkscape:window-maximized="1" />
  <metadata
     id="metadata7925">
    <rdf:RDF>
      <cc:Work
         rdf:about="">
        <dc:format>image/svg+xml</dc:format>
        <dc:type
           rdf:resource="http://purl.org/dc/dcmitype/StillImage" />
        <dc:title />
      </cc:Work>
    </rdf:RDF>
  </metadata>
  <g
     inkscape:groupmode="layer"
     id="layer6"
     inkscape:label="fuel"
     style="display:inline">
    <path
       id="path4-2"
       d="M 0.99738901,6.5466074 H 4.6736592 a 0.30961669,0.30961669 0 1 0 0,-0.61923 h -0.0318 v -2.22367 h 0.38188 a 0.23801326,0.23801326 0 0 1 0.23868,0.2380099 v 0.8519501 a 0.96133576,0.96133576 0 0 0 1.922666,0 V 2.0614772 a 0.35934036,0.35934036 0 0 0 -0.10608,-0.2559 l -0.787626,-0.78831 a 0.36199233,0.36199233 0 1 0 -0.51183,0.51184 l 0.68155,0.68221 v 2.5823502 a 0.23801326,0.23801326 0 1 1 -0.47536,0 V 3.9417173 a 0.96266087,0.96266087 0 0 0 -0.96133,-0.9613301 h -0.38255 V 0.98213717 A 0.54961835,0.54961835 0 0 0 4.0922392,0.4325172 H 1.639179 A 0.54961835,0.54961835 0 0 0 1.092219,0.98213717 V 5.9280375 h -0.0948 a 0.30962103,0.30962103 0 1 0 0,0.6192398 z M 2.039609,1.3500972 a 0.15182462,0.15182462 0 0 1 0.15182,-0.15182 h 1.3511702 a 0.15182462,0.15182462 0 0 1 0.15183,0.15182 v 0.47602 a 0.15182462,0.15182462 0 0 1 -0.15183,0.15183 H 2.191429 a 0.15182462,0.15182462 0 0 1 -0.15182,-0.15183 z"
       inkscape:connector-curvature="0"
       style="fill:#999999;stroke-width:0.06629895" />
  </g>
</svg>
