<?xml version="1.0" encoding="UTF-8" standalone="no"?>
<!-- Created with Inkscape (http://www.inkscape.org/) -->

<svg
   xmlns:dc="http://purl.org/dc/elements/1.1/"
   xmlns:cc="http://creativecommons.org/ns#"
   xmlns:rdf="http://www.w3.org/1999/02/22-rdf-syntax-ns#"
   xmlns:svg="http://www.w3.org/2000/svg"
   xmlns="http://www.w3.org/2000/svg"
   xmlns:sodipodi="http://sodipodi.sourceforge.net/DTD/sodipodi-0.dtd"
   xmlns:inkscape="http://www.inkscape.org/namespaces/inkscape"
   width="7.8730106mm"
   height="6.8825445mm"
   viewBox="0 0 7.8730105 6.8825446"
   version="1.1"
   id="svg7928"
   inkscape:version="0.92.2 (5c3e80d, 2017-08-06)"
   sodipodi:docname="d-trip.svg">
  <defs
     id="defs7922" />
  <sodipodi:namedview
     id="base"
     pagecolor="#ffffff"
     bordercolor="#666666"
     borderopacity="1.0"
     inkscape:pageopacity="0.0"
     inkscape:pageshadow="2"
     inkscape:zoom="7.9195959"
     inkscape:cx="-34.814883"
     inkscape:cy="-0.46570015"
     inkscape:document-units="mm"
     inkscape:current-layer="layer3"
     showgrid="false"
     fit-margin-top="0"
     fit-margin-left="0"
     fit-margin-right="0"
     fit-margin-bottom="0"
     inkscape:window-width="1680"
     inkscape:window-height="987"
     inkscape:window-x="-8"
     inkscape:window-y="-8"
     inkscape:window-maximized="1" />
  <metadata
     id="metadata7925">
    <rdf:RDF>
      <cc:Work
         rdf:about="">
        <dc:format>image/svg+xml</dc:format>
        <dc:type
           rdf:resource="http://purl.org/dc/dcmitype/StillImage" />
        <dc:title />
      </cc:Work>
    </rdf:RDF>
  </metadata>
  <g
     inkscape:groupmode="layer"
     id="layer3"
     inkscape:label="trip"
     style="display:inline">
    <g
       id="g1106"
       transform="matrix(0.07304537,0,0,0.07304537,0.33002138,-0.22254306)"
       style="fill:#999999;fill-opacity:1">
      <path
         id="path4-6"
         d="M 65.22,27.79 A 3.85,3.85 0 0 0 60.09,27.51 L 46.57,38.35 a 9.56,9.56 0 1 0 8.1,8.1 L 65.5,32.93 a 3.85,3.85 0 0 0 -0.28,-5.14 z"
         inkscape:connector-curvature="0"
         style="fill:#999999;fill-opacity:1" />
      <path
         id="path6"
         d="m 17.3,80.21 v 0 a 4.82,4.82 0 0 0 3.42,-1.41 l 6.52,-6.49 a 4.65,4.65 0 0 0 -0.75,-7.18 4.7,4.7 0 0 0 -5.89,0.69 l -3.05,3.05 a 35.1,35.1 0 0 1 -7,-16.77 H 16 a 3.73,3.73 0 0 0 3.72,-3.72 V 46.53 A 3.73,3.73 0 0 0 16,42.81 h -5.39 a 35.11,35.11 0 0 1 7,-16.78 l 3.78,3.78 a 3.73,3.73 0 0 0 5.26,0 l 1.3,-1.3 a 3.73,3.73 0 0 0 0,-5.26 l -3.78,-3.78 a 35.12,35.12 0 0 1 16.78,-7 v 5.37 a 3.73,3.73 0 0 0 3.72,3.72 h 1.84 a 3.73,3.73 0 0 0 3.72,-3.72 V 12.5 a 35.46,35.46 0 0 1 29.35,25.78 v 0 a 26.69,26.69 0 0 1 9.89,1.9 44.37,44.37 0 0 0 -44,-37.29 h -0.11 a 44.54,44.54 0 0 0 -31.54,75.9 4.77,4.77 0 0 0 3.48,1.42 z"
         inkscape:connector-curvature="0"
         style="fill:#999999;fill-opacity:1" />
      <path
         id="path8"
         d="m 37.92,73.33 a 1.76,1.76 0 0 0 -1.24,0.51 l -9.39,9.39 a 2.6,2.6 0 0 0 1.84,4.44 H 60.26 A 49.09,49.09 0 0 1 53.84,73.32 Z"
         inkscape:connector-curvature="0"
         style="fill:#999999;fill-opacity:1" />
      <path
         id="path10-5"
         d="m 79.63,45.75 q -0.62,0 -1.25,0 a 19.52,19.52 0 0 0 -18.12,19.6 c 0.13,13 10.9,25.18 16.33,30.51 a 4.34,4.34 0 0 0 6.1,0 C 88.14,90.49 99,78.17 99,65.12 A 19.37,19.37 0 0 0 79.63,45.75 Z m 0,27.12 a 7.75,7.75 0 1 1 7.75,-7.75 7.75,7.75 0 0 1 -7.75,7.75 z"
         inkscape:connector-curvature="0"
         style="fill:#999999;fill-opacity:1" />
    </g>
  </g>
</svg>
