<?xml version="1.0" encoding="UTF-8" standalone="no"?>
<!-- Created with Inkscape (http://www.inkscape.org/) -->

<svg
   xmlns:dc="http://purl.org/dc/elements/1.1/"
   xmlns:cc="http://creativecommons.org/ns#"
   xmlns:rdf="http://www.w3.org/1999/02/22-rdf-syntax-ns#"
   xmlns:svg="http://www.w3.org/2000/svg"
   xmlns="http://www.w3.org/2000/svg"
   xmlns:sodipodi="http://sodipodi.sourceforge.net/DTD/sodipodi-0.dtd"
   xmlns:inkscape="http://www.inkscape.org/namespaces/inkscape"
   width="127.5111mm"
   height="17.387053mm"
   viewBox="0 0 127.5111 17.387053"
   version="1.1"
   id="svg17183"
   inkscape:version="0.92.2 (5c3e80d, 2017-08-06)"
   sodipodi:docname="h-auto.svg">
  <defs
     id="defs17177" />
  <sodipodi:namedview
     id="base"
     pagecolor="#ffffff"
     bordercolor="#666666"
     borderopacity="1.0"
     inkscape:pageopacity="0.0"
     inkscape:pageshadow="2"
     inkscape:zoom="0.7"
     inkscape:cx="-79.17694"
     inkscape:cy="32.857422"
     inkscape:document-units="mm"
     inkscape:current-layer="layer1"
     showgrid="false"
     fit-margin-top="0"
     fit-margin-left="0"
     fit-margin-right="0"
     fit-margin-bottom="0"
     inkscape:window-width="1920"
     inkscape:window-height="1017"
     inkscape:window-x="-8"
     inkscape:window-y="-8"
     inkscape:window-maximized="1" />
  <metadata
     id="metadata17180">
    <rdf:RDF>
      <cc:Work
         rdf:about="">
        <dc:format>image/svg+xml</dc:format>
        <dc:type
           rdf:resource="http://purl.org/dc/dcmitype/StillImage" />
        <dc:title />
      </cc:Work>
    </rdf:RDF>
  </metadata>
  <g
     inkscape:label="Layer 1"
     inkscape:groupmode="layer"
     id="layer1"
     transform="translate(-4.128959,-4.068378)">
    <g
       transform="matrix(0.58838679,0,0,0.45787014,892.1697,-231.73422)"
       style="font-style:normal;font-weight:normal;font-size:40px;line-height:1.25;font-family:sans-serif;letter-spacing:0px;word-spacing:0px;fill:#ffffff;fill-opacity:1;stroke:none"
       id="g1098">
      <path
         id="path1024"
         style="font-style:normal;font-variant:normal;font-weight:normal;font-stretch:normal;font-size:40px;line-height:1.25;font-family:Objet;-inkscape-font-specification:Objet;letter-spacing:0px;word-spacing:0px;fill:#ffffff;fill-opacity:1;stroke:none;stroke-width:1"
         d="m -1392.3894,548.81097 c 0.36,0 0.56,-0.16 0.68,-0.48 l 2.44,-6.56 h 12.48 l 2.44,6.56 c 0.12,0.32 0.32,0.48 0.68,0.48 h 2.44 c 0.48,0 0.64,-0.24 0.48,-0.68 l -10.16,-26.84 c -0.12,-0.32 -0.36,-0.48 -0.72,-0.48 h -2.76 c -0.32,0 -0.56,0.16 -0.68,0.48 l -10.16,26.84 c -0.16,0.44 0,0.68 0.44,0.68 z m 9.4,-24.44 5.24,14.32 h -10.52 z"
         inkscape:connector-curvature="0" />
      <path
         id="path1026"
         style="font-style:normal;font-variant:normal;font-weight:normal;font-stretch:normal;font-size:40px;line-height:1.25;font-family:Objet;-inkscape-font-specification:Objet;letter-spacing:0px;word-spacing:0px;fill:#ffffff;fill-opacity:1;stroke:none;stroke-width:1"
         d="m -1356.2519,549.29097 c 4.04,0 6.8,-0.92 8.32,-2.72 1.52,-1.84 2.28,-4.88 2.28,-9.16 v -16 c 0,-0.4 -0.2,-0.6 -0.6,-0.6 h -2.16 c -0.4,0 -0.6,0.2 -0.6,0.6 v 16.32 c 0,3.24 -0.2,4.84 -1.2,6.4 -1,1.48 -2.84,2.04 -6.04,2.04 -3,0 -4.96,-0.64 -5.88,-1.88 -0.92,-1.24 -1.4,-3.44 -1.4,-6.56 v -16.32 c 0,-0.4 -0.2,-0.6 -0.6,-0.6 h -2.16 c -0.4,0 -0.6,0.2 -0.6,0.6 v 16 c 0,4.24 0.76,7.28 2.28,9.12 1.52,1.84 4.32,2.76 8.36,2.76 z"
         inkscape:connector-curvature="0" />
      <path
         id="path1028"
         style="font-style:normal;font-variant:normal;font-weight:normal;font-stretch:normal;font-size:40px;line-height:1.25;font-family:Objet;-inkscape-font-specification:Objet;letter-spacing:0px;word-spacing:0px;fill:#ffffff;fill-opacity:1;stroke:none;stroke-width:1"
         d="m -1328.7538,548.81097 c 0.4,0 0.6,-0.2 0.6,-0.6 v -24.4 h 8.68 c 0.4,0 0.6,-0.2 0.6,-0.6 v -1.8 c 0,-0.4 -0.2,-0.6 -0.6,-0.6 h -20.76 c -0.4,0 -0.6,0.2 -0.6,0.6 v 1.8 c 0,0.4 0.2,0.6 0.6,0.6 h 8.68 v 24.4 c 0,0.4 0.2,0.6 0.6,0.6 z"
         inkscape:connector-curvature="0" />
      <path
         id="path1030"
         style="font-style:normal;font-variant:normal;font-weight:normal;font-stretch:normal;font-size:40px;line-height:1.25;font-family:Objet;-inkscape-font-specification:Objet;letter-spacing:0px;word-spacing:0px;fill:#ffffff;fill-opacity:1;stroke:none;stroke-width:1"
         d="m -1304.2075,549.29097 c 4.44,0 7.52,-1.04 9.16,-3.12 1.64,-2.12 2.48,-5.88 2.48,-11.36 0,-5.52 -0.8,-9.32 -2.4,-11.36 -1.56,-2.08 -4.64,-3.12 -9.24,-3.12 -4.52,0 -7.6,1.04 -9.24,3.12 -1.6,2.08 -2.4,5.88 -2.4,11.36 0,5.72 0.48,8.88 2.24,11.28 1.76,2.4 4.56,3.2 9.4,3.2 z m -0.16,-3.12 c -3.48,0 -5.48,-0.6 -6.64,-2.52 -1.16,-1.96 -1.44,-4.32 -1.44,-8.84 0,-3.88 0.2,-6.04 0.84,-7.92 0.32,-0.96 0.8,-1.68 1.44,-2.12 1.28,-0.92 3.04,-1.32 5.96,-1.32 3.56,0 5.6,0.6 6.76,2.52 1.24,1.92 1.48,4.24 1.48,8.84 0,4.36 -0.6,7.32 -1.76,8.96 -1.16,1.6 -3.36,2.4 -6.64,2.4 z"
         inkscape:connector-curvature="0" />
    </g>
  </g>
</svg>
