<?xml version="1.0" encoding="UTF-8" standalone="no"?>
<!-- Created with Inkscape (http://www.inkscape.org/) -->

<svg
   xmlns:dc="http://purl.org/dc/elements/1.1/"
   xmlns:cc="http://creativecommons.org/ns#"
   xmlns:rdf="http://www.w3.org/1999/02/22-rdf-syntax-ns#"
   xmlns:svg="http://www.w3.org/2000/svg"
   xmlns="http://www.w3.org/2000/svg"
   xmlns:sodipodi="http://sodipodi.sourceforge.net/DTD/sodipodi-0.dtd"
   xmlns:inkscape="http://www.inkscape.org/namespaces/inkscape"
   width="127.5111mm"
   height="17.387053mm"
   viewBox="0 0 127.5111 17.387053"
   version="1.1"
   id="svg17183"
   inkscape:version="0.92.2 (5c3e80d, 2017-08-06)"
   sodipodi:docname="h-fullauto.svg">
  <defs
     id="defs17177" />
  <sodipodi:namedview
     id="base"
     pagecolor="#ffffff"
     bordercolor="#666666"
     borderopacity="1.0"
     inkscape:pageopacity="0.0"
     inkscape:pageshadow="2"
     inkscape:zoom="0.7"
     inkscape:cx="-311.3198"
     inkscape:cy="32.857422"
     inkscape:document-units="mm"
     inkscape:current-layer="layer1"
     showgrid="false"
     fit-margin-top="0"
     fit-margin-left="0"
     fit-margin-right="0"
     fit-margin-bottom="0"
     inkscape:window-width="1920"
     inkscape:window-height="1017"
     inkscape:window-x="-8"
     inkscape:window-y="-8"
     inkscape:window-maximized="1" />
  <metadata
     id="metadata17180">
    <rdf:RDF>
      <cc:Work
         rdf:about="">
        <dc:format>image/svg+xml</dc:format>
        <dc:type
           rdf:resource="http://purl.org/dc/dcmitype/StillImage" />
        <dc:title />
      </cc:Work>
    </rdf:RDF>
  </metadata>
  <g
     inkscape:label="Layer 1"
     inkscape:groupmode="layer"
     id="layer1"
     transform="translate(-4.128959,-4.068378)">
    <path
       style="opacity:1;fill:#ffffff;fill-opacity:1;stroke:none;stroke-width:1.91833258;stroke-miterlimit:4;stroke-dasharray:none;stroke-dashoffset:0;stroke-opacity:1"
       d="m 7.258479,4.068378 c -1.73382,0 -3.12952,1.395703 -3.12952,3.129526 v 11.127485 c 0,1.733823 1.3957,3.130042 3.12952,3.130042 h 55.72889 c 1.73382,0 3.129516,-1.396219 3.129516,-3.130042 V 7.197904 c 0,-1.733823 -1.395696,-3.129526 -3.129516,-3.129526 z m 0.88728,2.339392 h 10.7084 c 0.23535,0 0.35293,0.09177 0.35293,0.274918 v 0.842328 c 0,0.183118 -0.11758,0.274918 -0.35293,0.274918 h -9.08473 v 4.230748 h 6.09576 c 0.23535,0 0.35295,0.09177 0.35295,0.274918 v 0.750858 c 0,0.183121 -0.1176,0.274402 -0.35295,0.274402 h -6.09576 v 5.622915 c 0,0.183118 -0.11758,0.274402 -0.35296,0.274402 h -1.27071 c -0.23535,0 -0.35296,-0.09125 -0.35296,-0.274402 V 6.682688 c 0,-0.18312 0.11761,-0.274918 0.35296,-0.274918 z m 14.10869,0 h 1.27074 c 0.23535,0 0.35293,0.09177 0.35293,0.274918 v 7.472413 c 0,1.428549 0.28242,2.436191 0.82373,3.00395 0.54134,0.567761 1.69458,0.860414 3.45974,0.860414 1.88283,0 2.9654,-0.256154 3.55378,-0.933794 0.58841,-0.71428 0.70644,-1.44707 0.70644,-2.93057 V 6.682688 c 0,-0.18312 0.11757,-0.274918 0.35293,-0.274918 h 1.27074 c 0.23534,0 0.35345,0.09177 0.35345,0.274918 v 7.326167 c 0,1.959682 -0.44767,3.351581 -1.34204,4.194061 -0.89435,0.82417 -2.5182,1.245402 -4.8953,1.245402 -2.37707,0 -4.0242,-0.421526 -4.91855,-1.264007 -0.89437,-0.842489 -1.34154,-2.234083 -1.34154,-4.175456 V 6.682688 c 0,-0.18312 0.11761,-0.274918 0.35295,-0.274918 z m 16.368,0 h 1.27072 c 0.23537,0 0.35295,0.09177 0.35295,0.274918 V 17.72646 h 8.42584 c 0.23537,0 0.35296,0.09177 0.35296,0.274918 v 0.952397 c 0,0.183118 -0.11759,0.274402 -0.35296,0.274402 h -10.04951 c -0.23535,0 -0.35346,-0.09125 -0.35346,-0.274402 V 6.682688 c 0,-0.18312 0.11811,-0.274918 0.35346,-0.274918 z m 13.6524,0 h 1.27074 c 0.23534,0 0.35292,0.09177 0.35292,0.274918 V 17.72646 h 8.42585 c 0.23533,0 0.35294,0.09177 0.35294,0.274918 v 0.952397 c 0,0.183118 -0.11761,0.274402 -0.35294,0.274402 h -10.04951 c -0.23535,0 -0.35346,-0.09125 -0.35346,-0.274402 V 6.682688 c 0,-0.18312 0.11811,-0.274918 0.35346,-0.274918 z"
       id="rect1014"
       inkscape:connector-curvature="0" />
    <g
       transform="matrix(0.58838679,0,0,0.45787014,892.1697,-231.73422)"
       style="font-style:normal;font-weight:normal;font-size:40px;line-height:1.25;font-family:sans-serif;letter-spacing:0px;word-spacing:0px;fill:#ffffff;fill-opacity:1;stroke:none"
       id="g1098">
      <path
         id="path1024"
         style="font-style:normal;font-variant:normal;font-weight:normal;font-stretch:normal;font-size:40px;line-height:1.25;font-family:Objet;-inkscape-font-specification:Objet;letter-spacing:0px;word-spacing:0px;fill:#ffffff;fill-opacity:1;stroke:none;stroke-width:1"
         d="m -1392.3894,548.81097 c 0.36,0 0.56,-0.16 0.68,-0.48 l 2.44,-6.56 h 12.48 l 2.44,6.56 c 0.12,0.32 0.32,0.48 0.68,0.48 h 2.44 c 0.48,0 0.64,-0.24 0.48,-0.68 l -10.16,-26.84 c -0.12,-0.32 -0.36,-0.48 -0.72,-0.48 h -2.76 c -0.32,0 -0.56,0.16 -0.68,0.48 l -10.16,26.84 c -0.16,0.44 0,0.68 0.44,0.68 z m 9.4,-24.44 5.24,14.32 h -10.52 z"
         inkscape:connector-curvature="0" />
      <path
         id="path1026"
         style="font-style:normal;font-variant:normal;font-weight:normal;font-stretch:normal;font-size:40px;line-height:1.25;font-family:Objet;-inkscape-font-specification:Objet;letter-spacing:0px;word-spacing:0px;fill:#ffffff;fill-opacity:1;stroke:none;stroke-width:1"
         d="m -1356.2519,549.29097 c 4.04,0 6.8,-0.92 8.32,-2.72 1.52,-1.84 2.28,-4.88 2.28,-9.16 v -16 c 0,-0.4 -0.2,-0.6 -0.6,-0.6 h -2.16 c -0.4,0 -0.6,0.2 -0.6,0.6 v 16.32 c 0,3.24 -0.2,4.84 -1.2,6.4 -1,1.48 -2.84,2.04 -6.04,2.04 -3,0 -4.96,-0.64 -5.88,-1.88 -0.92,-1.24 -1.4,-3.44 -1.4,-6.56 v -16.32 c 0,-0.4 -0.2,-0.6 -0.6,-0.6 h -2.16 c -0.4,0 -0.6,0.2 -0.6,0.6 v 16 c 0,4.24 0.76,7.28 2.28,9.12 1.52,1.84 4.32,2.76 8.36,2.76 z"
         inkscape:connector-curvature="0" />
      <path
         id="path1028"
         style="font-style:normal;font-variant:normal;font-weight:normal;font-stretch:normal;font-size:40px;line-height:1.25;font-family:Objet;-inkscape-font-specification:Objet;letter-spacing:0px;word-spacing:0px;fill:#ffffff;fill-opacity:1;stroke:none;stroke-width:1"
         d="m -1328.7538,548.81097 c 0.4,0 0.6,-0.2 0.6,-0.6 v -24.4 h 8.68 c 0.4,0 0.6,-0.2 0.6,-0.6 v -1.8 c 0,-0.4 -0.2,-0.6 -0.6,-0.6 h -20.76 c -0.4,0 -0.6,0.2 -0.6,0.6 v 1.8 c 0,0.4 0.2,0.6 0.6,0.6 h 8.68 v 24.4 c 0,0.4 0.2,0.6 0.6,0.6 z"
         inkscape:connector-curvature="0" />
      <path
         id="path1030"
         style="font-style:normal;font-variant:normal;font-weight:normal;font-stretch:normal;font-size:40px;line-height:1.25;font-family:Objet;-inkscape-font-specification:Objet;letter-spacing:0px;word-spacing:0px;fill:#ffffff;fill-opacity:1;stroke:none;stroke-width:1"
         d="m -1304.2075,549.29097 c 4.44,0 7.52,-1.04 9.16,-3.12 1.64,-2.12 2.48,-5.88 2.48,-11.36 0,-5.52 -0.8,-9.32 -2.4,-11.36 -1.56,-2.08 -4.64,-3.12 -9.24,-3.12 -4.52,0 -7.6,1.04 -9.24,3.12 -1.6,2.08 -2.4,5.88 -2.4,11.36 0,5.72 0.48,8.88 2.24,11.28 1.76,2.4 4.56,3.2 9.4,3.2 z m -0.16,-3.12 c -3.48,0 -5.48,-0.6 -6.64,-2.52 -1.16,-1.96 -1.44,-4.32 -1.44,-8.84 0,-3.88 0.2,-6.04 0.84,-7.92 0.32,-0.96 0.8,-1.68 1.44,-2.12 1.28,-0.92 3.04,-1.32 5.96,-1.32 3.56,0 5.6,0.6 6.76,2.52 1.24,1.92 1.48,4.24 1.48,8.84 0,4.36 -0.6,7.32 -1.76,8.96 -1.16,1.6 -3.36,2.4 -6.64,2.4 z"
         inkscape:connector-curvature="0" />
    </g>
  </g>
</svg>
