<?xml version="1.0" encoding="UTF-8" standalone="no"?>
<!-- Created with Inkscape (http://www.inkscape.org/) -->

<svg
   xmlns:dc="http://purl.org/dc/elements/1.1/"
   xmlns:cc="http://creativecommons.org/ns#"
   xmlns:rdf="http://www.w3.org/1999/02/22-rdf-syntax-ns#"
   xmlns:svg="http://www.w3.org/2000/svg"
   xmlns="http://www.w3.org/2000/svg"
   xmlns:sodipodi="http://sodipodi.sourceforge.net/DTD/sodipodi-0.dtd"
   xmlns:inkscape="http://www.inkscape.org/namespaces/inkscape"
   width="127.5111mm"
   height="17.387053mm"
   viewBox="0 0 127.5111 17.387053"
   version="1.1"
   id="svg17183"
   inkscape:version="0.92.2 (5c3e80d, 2017-08-06)"
   sodipodi:docname="h-systemoff.svg">
  <defs
     id="defs17177" />
  <sodipodi:namedview
     id="base"
     pagecolor="#ffffff"
     bordercolor="#666666"
     borderopacity="1.0"
     inkscape:pageopacity="0.0"
     inkscape:pageshadow="2"
     inkscape:zoom="0.98994949"
     inkscape:cx="326.96058"
     inkscape:cy="7.5563713"
     inkscape:document-units="mm"
     inkscape:current-layer="layer1"
     showgrid="false"
     fit-margin-top="0"
     fit-margin-left="0"
     fit-margin-right="0"
     fit-margin-bottom="0"
     inkscape:window-width="1688"
     inkscape:window-height="878"
     inkscape:window-x="-8"
     inkscape:window-y="-8"
     inkscape:window-maximized="1" />
  <metadata
     id="metadata17180">
    <rdf:RDF>
      <cc:Work
         rdf:about="">
        <dc:format>image/svg+xml</dc:format>
        <dc:type
           rdf:resource="http://purl.org/dc/dcmitype/StillImage" />
        <dc:title></dc:title>
      </cc:Work>
    </rdf:RDF>
  </metadata>
  <g
     inkscape:label="Layer 1"
     inkscape:groupmode="layer"
     id="layer1"
     transform="translate(-4.128959,-4.068378)">
    <path
       style="opacity:1;fill:#ffffff;fill-opacity:1;stroke:none;stroke-width:1.91833258;stroke-miterlimit:4;stroke-dasharray:none;stroke-dashoffset:0;stroke-opacity:1"
       d="m 7.2585691,4.132044 c -1.7338191,0 -3.129524,1.3957009 -3.129524,3.1295261 V 18.389056 c 0,1.733822 1.3957049,3.130039 3.129524,3.130039 H 81.508297 c 1.73382,0 3.129526,-1.396217 3.129526,-3.130039 V 7.2615701 c 0,-1.7338252 -1.395706,-3.1295261 -3.129526,-3.1295261 z m 4.3320329,2.1807461 c 0.97515,0 1.869381,0.082682 2.683041,0.2480469 0.81366,0.1653646 1.5343,0.3693133 2.161625,0.6118489 V 9.1074515 H 16.305043 C 15.777097,8.7105765 15.081181,8.3826017 14.217832,8.1235323 13.360695,7.858949 12.481916,7.7266573 11.581301,7.7266573 c -0.987572,0 -1.7823866,0.181901 -2.3848671,0.5457031 -0.5962697,0.3638021 -0.8945184,0.8323342 -0.8945184,1.4055992 0,0.5126294 0.148867,0.9150164 0.4470017,1.2071604 0.298133,0.292143 0.8230317,0.515385 1.5745788,0.669727 0.397513,0.07717 0.962591,0.170876 1.695504,0.28112 0.732915,0.110241 1.354138,0.223242 1.863452,0.338997 1.03105,0.242536 1.807321,0.609092 2.329057,1.099675 0.521735,0.49058 0.782898,1.176843 0.782898,2.058789 0,0.479557 -0.127232,0.953603 -0.381889,1.422135 -0.248445,0.468532 -0.599752,0.865407 -1.053166,1.190625 -0.496891,0.352777 -1.077422,0.628386 -1.742012,0.826823 -0.658382,0.198438 -1.453196,0.297656 -2.384867,0.297656 -0.999994,0 -1.9009221,-0.08268 -2.7021598,-0.248047 C 7.9352878,18.657256 7.1250191,18.411966 6.2989387,18.086748 v -2.050521 h 0.1302237 c 0.7018587,0.518142 1.5126444,0.917774 2.4318918,1.198893 0.9192482,0.28112 1.7825728,0.42168 2.5900218,0.42168 1.14285,0 2.030901,-0.190169 2.664437,-0.570508 0.639748,-0.380338 0.959631,-0.887457 0.959631,-1.521354 0,-0.545703 -0.152474,-0.948089 -0.45682,-1.207161 -0.298134,-0.259072 -0.754522,-0.460267 -1.369425,-0.603581 -0.465835,-0.110244 -0.97219,-0.201194 -1.51877,-0.272852 -0.54037,-0.07166 -1.114718,-0.162607 -1.723409,-0.272851 C 8.7769142,12.976982 7.8641408,12.582862 7.2678711,12.026136 6.6778134,11.463897 6.3826547,10.733535 6.3826547,9.8350554 c 0,-1.030774 0.4903837,-1.8741334 1.4717431,-2.5300778 C 8.8357582,6.6435193 10.081296,6.3127901 11.590602,6.3127901 Z m 24.782467,0 c 0.975146,0 1.86938,0.082682 2.683039,0.2480469 0.81366,0.1653646 1.534301,0.3693133 2.161625,0.6118489 V 9.1074515 H 41.08751 C 40.559563,8.7105765 39.863638,8.3826017 39.0003,8.1235323 38.143161,7.858949 37.264382,7.7266573 36.363767,7.7266573 c -0.987568,0 -1.782387,0.181901 -2.384867,0.5457031 -0.59627,0.3638021 -0.894519,0.8323342 -0.894519,1.4055992 0,0.5126294 0.148867,0.9150164 0.447,1.2071604 0.298138,0.292143 0.823042,0.515385 1.57458,0.669727 0.397518,0.07717 0.962594,0.170876 1.695506,0.28112 0.732917,0.110241 1.354137,0.223242 1.863452,0.338997 1.031044,0.242536 1.807319,0.609092 2.329056,1.099675 0.521734,0.49058 0.782899,1.176843 0.782899,2.058789 0,0.479557 -0.127235,0.953603 -0.381889,1.422135 -0.248446,0.468532 -0.599749,0.865407 -1.053166,1.190625 -0.496892,0.352777 -1.077423,0.628386 -1.742014,0.826823 -0.658384,0.198438 -1.453197,0.297656 -2.384866,0.297656 -0.999996,0 -1.900923,-0.08268 -2.702161,-0.248047 -0.795025,-0.165364 -1.605296,-0.410654 -2.431375,-0.735872 v -2.050521 h 0.130225 c 0.70185,0.518142 1.512641,0.917774 2.431891,1.198893 0.91925,0.28112 1.782575,0.42168 2.590022,0.42168 1.14285,0 2.030902,-0.190169 2.664439,-0.570508 0.639747,-0.380338 0.959631,-0.887457 0.959631,-1.521354 0,-0.545703 -0.152474,-0.948089 -0.456819,-1.207161 -0.298135,-0.259072 -0.754526,-0.460267 -1.369425,-0.603581 -0.465839,-0.110244 -0.972193,-0.201194 -1.518772,-0.272852 -0.540369,-0.07166 -1.114716,-0.162607 -1.723409,-0.272851 -1.229807,-0.231511 -2.142582,-0.625631 -2.73885,-1.182357 -0.590058,-0.562239 -0.885219,-1.292601 -0.885219,-2.1910806 0,-1.030774 0.490387,-1.8741334 1.471745,-2.5300778 0.98136,-0.6614583 2.2269,-0.9921875 3.736207,-0.9921875 z M 18.149375,6.5360323 h 2.040702 l 3.792017,5.5066407 3.828707,-5.5066407 h 1.966288 L 24.8947,13.448271 v 5.399154 h -1.844332 v -5.225521 z m 24.726655,0 H 54.633971 V 7.9912406 H 49.677166 V 18.847425 H 47.832835 V 7.9912406 H 42.87603 Z m 13.639996,0 h 9.139494 v 1.4552083 h -7.295163 v 3.3734374 h 7.295163 v 1.455208 h -7.295163 v 4.572331 h 7.295163 v 1.455208 h -9.139494 z m 12.074197,0 h 2.515608 l 3.698483,6.8543617 3.577558,-6.8543617 h 2.562119 V 18.847425 H 79.09966 V 8.2392875 L 75.24253,15.457451 H 74.142856 L 70.313631,8.2392875 V 18.847425 h -1.723408 z"
       id="rect1014-8"
       inkscape:connector-curvature="0" />
    <g
       aria-label="SYSTEM OFF"
       transform="matrix(0.32721011,0,0,0.26458333,0.12659321,-23.703785)"
       style="font-style:normal;font-weight:normal;font-size:40px;line-height:1.25;font-family:sans-serif;letter-spacing:0px;word-spacing:0px;writing-mode:lr-tb;fill:#000000;fill-opacity:1;stroke:none"
       id="flowRoot3292">
      <path
         d="m 317.16992,120.05906 q 2.84375,3.125 4.34375,7.65625 1.53125,4.53125 1.53125,10.28125 0,5.75 -1.5625,10.3125 -1.53125,4.53125 -4.3125,7.5625 -2.875,3.15625 -6.8125,4.75 -3.90625,1.59375 -8.9375,1.59375 -4.90625,0 -8.9375,-1.625 -4,-1.625 -6.8125,-4.71875 -2.8125,-3.09375 -4.34375,-7.59375 -1.5,-4.5 -1.5,-10.28125 0,-5.6875 1.5,-10.1875 1.5,-4.53125 4.375,-7.75 2.75,-3.0625 6.8125,-4.6875 4.09375,-1.625 8.90625,-1.625 5,0 8.96875,1.65625 4,1.625 6.78125,4.65625 z m -0.5625,17.9375 q 0,-9.0625 -4.0625,-13.96875 -4.0625,-4.9375 -11.09375,-4.9375 -7.09375,0 -11.15625,4.9375 -4.03125,4.90625 -4.03125,13.96875 0,9.15625 4.125,14.03125 4.125,4.84375 11.0625,4.84375 6.9375,0 11.03125,-4.84375 4.125,-4.875 4.125,-14.03125 z"
         style="font-size:64px;fill:#ffffff"
         id="path3312"
         inkscape:connector-curvature="0" />
      <path
         d="m 362.57617,120.21531 h -23.53125 v 13.125 h 20.21875 v 5.5 h -20.21875 v 22.40625 h -6.1875 v -46.53125 h 29.71875 z"
         style="font-size:64px;fill:#ffffff"
         id="path3314"
         inkscape:connector-curvature="0" />
      <path
         d="m 399.32617,120.21531 h -23.53125 v 13.125 h 20.21875 v 5.5 h -20.21875 v 22.40625 h -6.1875 v -46.53125 h 29.71875 z"
         style="font-size:64px;fill:#ffffff"
         id="path3316"
         inkscape:connector-curvature="0" />
    </g>
  </g>
</svg>
