<?xml version="1.0" encoding="UTF-8" standalone="no"?>
<!-- Created with Inkscape (http://www.inkscape.org/) -->

<svg
   xmlns:dc="http://purl.org/dc/elements/1.1/"
   xmlns:cc="http://creativecommons.org/ns#"
   xmlns:rdf="http://www.w3.org/1999/02/22-rdf-syntax-ns#"
   xmlns:svg="http://www.w3.org/2000/svg"
   xmlns="http://www.w3.org/2000/svg"
   xmlns:sodipodi="http://sodipodi.sourceforge.net/DTD/sodipodi-0.dtd"
   xmlns:inkscape="http://www.inkscape.org/namespaces/inkscape"
   width="12.284018mm"
   height="10.223513mm"
   viewBox="0 0 12.284018 10.223513"
   version="1.1"
   id="svg9885"
   inkscape:version="0.92.2 (5c3e80d, 2017-08-06)"
   sodipodi:docname="i-ajar.svg">
  <defs
     id="defs9879" />
  <sodipodi:namedview
     id="base"
     pagecolor="#ffffff"
     bordercolor="#666666"
     borderopacity="1.0"
     inkscape:pageopacity="0.0"
     inkscape:pageshadow="2"
     inkscape:zoom="11.2"
     inkscape:cx="26.68763"
     inkscape:cy="18.070018"
     inkscape:document-units="mm"
     inkscape:current-layer="layer9"
     showgrid="false"
     fit-margin-top="0"
     fit-margin-left="0"
     fit-margin-right="0"
     fit-margin-bottom="0"
     inkscape:window-width="1680"
     inkscape:window-height="987"
     inkscape:window-x="-8"
     inkscape:window-y="-8"
     inkscape:window-maximized="1" />
  <metadata
     id="metadata9882">
    <rdf:RDF>
      <cc:Work
         rdf:about="">
        <dc:format>image/svg+xml</dc:format>
        <dc:type
           rdf:resource="http://purl.org/dc/dcmitype/StillImage" />
        <dc:title />
      </cc:Work>
    </rdf:RDF>
  </metadata>
  <g
     inkscape:groupmode="layer"
     id="layer9"
     inkscape:label="Layer 4"
     transform="translate(-118.82539,-140.15777)"
     style="display:inline">
    <path
       style="color:#000000;font-style:normal;font-variant:normal;font-weight:normal;font-stretch:normal;font-size:medium;line-height:normal;font-family:sans-serif;font-variant-ligatures:normal;font-variant-position:normal;font-variant-caps:normal;font-variant-numeric:normal;font-variant-alternates:normal;font-feature-settings:normal;text-indent:0;text-align:start;text-decoration:none;text-decoration-line:none;text-decoration-style:solid;text-decoration-color:#000000;letter-spacing:normal;word-spacing:normal;text-transform:none;writing-mode:lr-tb;direction:ltr;text-orientation:mixed;dominant-baseline:auto;baseline-shift:baseline;text-anchor:start;white-space:normal;shape-padding:0;clip-rule:nonzero;display:inline;overflow:visible;visibility:visible;opacity:1;isolation:auto;mix-blend-mode:normal;color-interpolation:sRGB;color-interpolation-filters:linearRGB;solid-color:#000000;solid-opacity:1;vector-effect:none;fill:#ff0000;fill-opacity:1;fill-rule:nonzero;stroke:none;stroke-width:0.49777788;stroke-linecap:butt;stroke-linejoin:miter;stroke-miterlimit:4;stroke-dasharray:none;stroke-dashoffset:0;stroke-opacity:1;color-rendering:auto;image-rendering:auto;shape-rendering:auto;text-rendering:auto;enable-background:accumulate"
       d="m 124.69083,141.39574 c -0.21775,0.005 -0.43784,0.024 -0.63749,0.0661 -0.85286,0.17955 -1.07204,1.03361 -1.07204,1.03361 l -0.007,0.0299 v 1.29512 h 0.0996 l -2.04486,3.23463 h 1.04114 l 1.00392,-1.45027 v -1.78436 h 0.39734 v -1.21887 c 0.007,-0.0264 0.1381,-0.53761 0.68406,-0.65254 0.61106,-0.12865 1.7233,0.032 1.73536,0.0337 0.004,8e-4 0.39492,0.0801 0.47197,0.43964 0.0951,0.4438 0.0329,1.30203 0.0329,1.30203 l 0.39673,0.0343 v 1.77176 l 1.00392,1.45007 h 1.04114 l -2.03632,-3.22102 0.0903,0.007 c 0,0 0.0865,-0.85212 -0.0415,-1.44945 -0.14564,-0.67965 -0.86382,-0.82396 -0.86382,-0.82396 l -0.005,-0.002 -0.004,-7.9e-4 c 0,0 -0.28139,-0.0491 -0.6625,-0.0777 -0.19055,-0.0143 -0.40612,-0.0233 -0.62387,-0.0183 z m -0.51975,1.94095 c -0.1545,0 -0.27879,0.12449 -0.27879,0.279 v 0.74363 c 0,0.1545 0.12429,0.27879 0.27879,0.27879 H 125.77 c 0.1545,0 0.27899,-0.12429 0.27899,-0.27879 v -0.74363 c 0,-0.15451 -0.12449,-0.279 -0.27899,-0.279 z m -1.1967,3.45812 v 1.82219 c 0,0.12491 0.0571,0.23578 0.12221,0.30746 0.0652,0.0717 0.13703,0.11528 0.20132,0.14743 0.12857,0.0643 0.24828,0.0862 0.24828,0.0862 l 0.0238,0.005 h 2.66466 c 0.15276,0 0.28394,-0.0292 0.39124,-0.0984 0.0887,-0.0576 0.13544,-0.16922 0.15937,-0.26493 0.0264,-0.0895 0.0278,-0.19944 0.0334,-0.29529 v -1.67314 h -0.498 v 1.75854 c 0.002,0.0646 -0.0204,0.0813 -0.086,0.0753 h -2.60386 c -0.0443,0.002 -0.1124,7.9e-4 -0.13929,-0.008 -0.0191,-0.0151 -0.0184,-0.0318 -0.0199,-0.0629 v -1.79921 z m 1.25262,0.29749 c 0,0 -0.22322,0.33451 -0.40913,0.59479 -0.18592,0.26029 0.22307,0.44636 0.22307,0.44636 0,0 1.64542,0.10219 1.83134,-0.009 0.52195,-0.17911 0.0244,-0.63452 -0.23243,-1.03179 z"
       id="path6543"
       inkscape:connector-curvature="0"
       sodipodi:nodetypes="cccccccccccccccccccccccccccccssssssssscsccccscccccccccccccccccc" />
  </g>
</svg>
