<?xml version="1.0" encoding="UTF-8" standalone="no"?>
<!-- Created with Inkscape (http://www.inkscape.org/) -->

<svg
   xmlns:dc="http://purl.org/dc/elements/1.1/"
   xmlns:cc="http://creativecommons.org/ns#"
   xmlns:rdf="http://www.w3.org/1999/02/22-rdf-syntax-ns#"
   xmlns:svg="http://www.w3.org/2000/svg"
   xmlns="http://www.w3.org/2000/svg"
   xmlns:sodipodi="http://sodipodi.sourceforge.net/DTD/sodipodi-0.dtd"
   xmlns:inkscape="http://www.inkscape.org/namespaces/inkscape"
   width="12.284018mm"
   height="10.223513mm"
   viewBox="0 0 12.284018 10.223513"
   version="1.1"
   id="svg9885"
   inkscape:version="0.92.2 (5c3e80d, 2017-08-06)"
   sodipodi:docname="i-cruiseon.svg">
  <defs
     id="defs9879" />
  <sodipodi:namedview
     id="base"
     pagecolor="#ffffff"
     bordercolor="#666666"
     borderopacity="1.0"
     inkscape:pageopacity="0.0"
     inkscape:pageshadow="2"
     inkscape:zoom="11.2"
     inkscape:cx="26.68763"
     inkscape:cy="18.070018"
     inkscape:document-units="mm"
     inkscape:current-layer="layer13"
     showgrid="false"
     fit-margin-top="0"
     fit-margin-left="0"
     fit-margin-right="0"
     fit-margin-bottom="0"
     inkscape:window-width="1680"
     inkscape:window-height="987"
     inkscape:window-x="-8"
     inkscape:window-y="-8"
     inkscape:window-maximized="1" />
  <metadata
     id="metadata9882">
    <rdf:RDF>
      <cc:Work
         rdf:about="">
        <dc:format>image/svg+xml</dc:format>
        <dc:type
           rdf:resource="http://purl.org/dc/dcmitype/StillImage" />
        <dc:title />
      </cc:Work>
    </rdf:RDF>
  </metadata>
  <g
     inkscape:groupmode="layer"
     id="layer13"
     inkscape:label="Layer 8"
     transform="translate(-118.82539,-140.15777)"
     style="display:inline">
    <g
       id="g5855"
       transform="matrix(0.23563917,0,0,0.23563917,144.34245,63.358229)"
       style="fill:#ff7800;fill-opacity:1;stroke:none;stroke-opacity:1">
      <path
         inkscape:connector-curvature="0"
         id="rect1679-1"
         d="m -103.39837,338.31115 3.999766,0.15861 5.77403,0.41009 -0.302877,-3.93451 -0.265826,-5.83928 -2.432924,2.48436 -3.594589,-3.59457 -4.21664,4.21665 3.58717,3.58715 z"
         style="opacity:1;fill:#ff7800;fill-opacity:1;stroke:none;stroke-width:5.09098625;stroke-miterlimit:4;stroke-dasharray:none;stroke-dashoffset:0;stroke-opacity:1" />
      <path
         id="path2079"
         transform="matrix(0.26458333,0,0,0.26458333,0,169.99998)"
         d="m -302.14062,617.02344 c -41.01859,0 -74.41016,33.38959 -74.41016,74.4082 0,22.3773 9.48553,43.02154 25.63086,56.13477 l 6.88281,-7.75 10.67773,-10.67774 -6.85742,-6.84961 -9.15625,9.15821 c -8.47077,-9.99564 -13.80774,-22.72928 -14.53906,-36.71289 h 12.81641 l -0.006,-9.69141 -12.58203,0.002 c 1.33254,-13.07398 6.72309,-24.917 14.88281,-34.2793 l 8.66211,8.66211 1.06836,-1.06835 21.16015,21.1582 a 18.571429,18.571429 0 0 0 -2.80468,9.76758 18.571429,18.571429 0 0 0 18.57226,18.57226 18.571429,18.571429 0 0 0 18.57031,-18.57226 18.571429,18.571429 0 0 0 -18.57031,-18.57032 18.571429,18.571429 0 0 0 -11.29297,3.84375 l -20.91992,-20.91797 1.06836,-1.07031 -8.58398,-8.58008 c 9.47023,-7.93716 21.35038,-13.09352 34.41601,-14.20312 v 11.61719 l 9.69336,-0.006 -0.002,-11.67188 c 13.14515,0.9143 25.13825,5.91178 34.73242,13.73242 l -8.18164,8.18555 6.85156,6.84961 8.33399,-8.33398 c 8.41195,9.39277 13.98175,21.37791 15.39062,34.63672 l -13.73242,0.002 v 9.6875 h 14.00976 c -0.68499,14.17249 -6.10476,27.07025 -14.71874,37.15429 l -9.82032,-9.8164 -6.84961,6.84961 13.73828,13.74023 4.76563,5.04688 c 15.62044,-13.65011 25.50586,-33.70953 25.50586,-56.0293 0,-41.01861 -33.38384,-74.4082 -74.40234,-74.4082 z"
         style="color:#000000;font-style:normal;font-variant:normal;font-weight:normal;font-stretch:normal;font-size:medium;line-height:normal;font-family:sans-serif;font-variant-ligatures:normal;font-variant-position:normal;font-variant-caps:normal;font-variant-numeric:normal;font-variant-alternates:normal;font-feature-settings:normal;text-indent:0;text-align:start;text-decoration:none;text-decoration-line:none;text-decoration-style:solid;text-decoration-color:#000000;letter-spacing:normal;word-spacing:normal;text-transform:none;writing-mode:lr-tb;direction:ltr;text-orientation:mixed;dominant-baseline:auto;baseline-shift:baseline;text-anchor:start;white-space:normal;shape-padding:0;clip-rule:nonzero;display:inline;overflow:visible;visibility:visible;opacity:1;isolation:auto;mix-blend-mode:normal;color-interpolation:sRGB;color-interpolation-filters:linearRGB;solid-color:#000000;solid-opacity:1;vector-effect:none;fill:#ff7800;fill-opacity:1;fill-rule:nonzero;stroke:none;stroke-width:12.53669262;stroke-linecap:butt;stroke-linejoin:miter;stroke-miterlimit:4;stroke-dasharray:none;stroke-dashoffset:0;stroke-opacity:1;color-rendering:auto;image-rendering:auto;shape-rendering:auto;text-rendering:auto;enable-background:accumulate"
         inkscape:connector-curvature="0" />
    </g>
  </g>
</svg>
