<?xml version="1.0" encoding="UTF-8" standalone="no"?>
<!-- Created with Inkscape (http://www.inkscape.org/) -->

<svg
   xmlns:dc="http://purl.org/dc/elements/1.1/"
   xmlns:cc="http://creativecommons.org/ns#"
   xmlns:rdf="http://www.w3.org/1999/02/22-rdf-syntax-ns#"
   xmlns:svg="http://www.w3.org/2000/svg"
   xmlns="http://www.w3.org/2000/svg"
   xmlns:sodipodi="http://sodipodi.sourceforge.net/DTD/sodipodi-0.dtd"
   xmlns:inkscape="http://www.inkscape.org/namespaces/inkscape"
   width="12.284018mm"
   height="10.223513mm"
   viewBox="0 0 12.284018 10.223513"
   version="1.1"
   id="svg9885"
   inkscape:version="0.92.2 (5c3e80d, 2017-08-06)"
   sodipodi:docname="i-escoff.svg">
  <defs
     id="defs9879" />
  <sodipodi:namedview
     id="base"
     pagecolor="#ffffff"
     bordercolor="#666666"
     borderopacity="1.0"
     inkscape:pageopacity="0.0"
     inkscape:pageshadow="2"
     inkscape:zoom="11.2"
     inkscape:cx="-2.3302276"
     inkscape:cy="18.070018"
     inkscape:document-units="mm"
     inkscape:current-layer="g6530"
     showgrid="false"
     fit-margin-top="0"
     fit-margin-left="0"
     fit-margin-right="0"
     fit-margin-bottom="0"
     inkscape:window-width="1680"
     inkscape:window-height="987"
     inkscape:window-x="-8"
     inkscape:window-y="-8"
     inkscape:window-maximized="1" />
  <metadata
     id="metadata9882">
    <rdf:RDF>
      <cc:Work
         rdf:about="">
        <dc:format>image/svg+xml</dc:format>
        <dc:type
           rdf:resource="http://purl.org/dc/dcmitype/StillImage" />
        <dc:title />
      </cc:Work>
    </rdf:RDF>
  </metadata>
  <g
     inkscape:groupmode="layer"
     id="layer14"
     inkscape:label="Layer 9"
     transform="translate(-118.82539,-140.15777)"
     style="display:inline">
    <g
       id="g6530"
       transform="matrix(0.7320661,0,0,0.7320661,-15.621068,-102.37719)"
       style="fill:#ff7800;fill-opacity:1">
      <g
         aria-label="OFF"
         transform="matrix(0.12742861,0,0,0.14331182,315.15206,271.22895)"
         style="font-style:normal;font-weight:normal;font-size:40px;line-height:1.25;font-family:sans-serif;letter-spacing:0px;word-spacing:0px;fill:#ff7800;fill-opacity:1;stroke:none"
         id="flowRoot1343">
        <path
           d="m -998.19727,501.99517 q 0,-5.11719 1.50391,-8.41797 1.52344,-3.32032 3.96484,-4.94141 2.44141,-1.62109 5.91797,-1.62109 5.03907,0 8.20313,3.84765 3.18359,3.84766 3.18359,10.95703 0,7.1875 -3.35937,11.23047 -2.94922,3.57422 -8.00782,3.57422 -5.09765,0 -8.04687,-3.53515 -3.35938,-4.04297 -3.35938,-11.09375 z m 4.88282,-0.19532 q 0,4.94141 1.875,7.42188 1.875,2.46094 4.64843,2.46094 2.79297,0 4.62891,-2.44141 1.83594,-2.46094 1.83594,-7.53906 0,-4.98047 -1.79688,-7.36328 -1.77734,-2.38282 -4.66797,-2.38282 -2.89062,0 -4.70703,2.40235 -1.8164,2.40234 -1.8164,7.4414 z"
           style="font-style:normal;font-variant:normal;font-weight:bold;font-stretch:normal;font-family:'Arial Narrow';-inkscape-font-specification:'Arial Narrow Bold';fill:#ff7800;fill-opacity:1"
           id="path818" />
        <path
           d="m -971.67383,516.13579 v -28.63281 h 16.09375 v 4.84375 h -11.36719 v 6.77734 h 9.82422 v 4.84375 h -9.82422 v 12.16797 z"
           style="font-style:normal;font-variant:normal;font-weight:bold;font-stretch:normal;font-family:'Arial Narrow';-inkscape-font-specification:'Arial Narrow Bold';fill:#ff7800;fill-opacity:1"
           id="path820" />
        <path
           d="m -951.5957,516.13579 v -28.63281 h 16.09375 v 4.84375 h -11.36719 v 6.77734 h 9.82422 v 4.84375 h -9.82422 v 12.16797 z"
           style="font-style:normal;font-variant:normal;font-weight:bold;font-stretch:normal;font-family:'Arial Narrow';-inkscape-font-specification:'Arial Narrow Bold';fill:#ff7800;fill-opacity:1"
           id="path822" />
      </g>
      <path
         sodipodi:nodetypes="sscccsccccscscccssccscccsssssccccccsccssccccccccccscssc"
         inkscape:connector-curvature="0"
         id="path1677"
         d="m 189.28548,340.1478 c -0.71057,-0.21614 -1.21977,-0.65129 -1.21977,-1.04237 0,-0.28946 0.36576,-0.5459 1.3541,-0.94936 1.25552,-0.51253 1.28338,-0.54401 0.88401,-0.99888 -0.17831,-0.20307 -0.28948,-0.41801 -0.2496,-0.48254 0.12097,-0.19575 0.85646,-0.0296 1.30578,0.2949 0.332,0.23979 0.42418,0.37481 0.44871,0.65716 0.0368,0.42307 -0.15065,0.56148 -1.49301,1.10273 -0.46857,0.18893 -0.87496,0.40351 -0.90312,0.47685 -0.0281,0.0733 0.0751,0.26519 0.22952,0.42632 0.4349,0.45393 0.26219,0.70342 -0.35662,0.51519 z m 3.81449,-0.12487 c -0.3587,-0.19751 -0.86447,-0.72977 -0.86447,-0.90975 0,-0.28516 0.54965,-0.66281 1.4705,-1.01037 1.11205,-0.4197 1.16814,-0.48943 0.76397,-0.94977 -0.46774,-0.53272 -0.28271,-0.69573 0.51762,-0.45594 0.55302,0.16568 1.01089,0.61485 1.01089,0.99168 0,0.36215 -0.16175,0.47346 -1.47155,1.01269 -0.49668,0.20448 -0.91985,0.42322 -0.94039,0.4861 -0.0205,0.0629 0.079,0.25255 0.22113,0.42149 0.14217,0.16894 0.25847,0.35776 0.25847,0.41961 0,0.14496 -0.70004,0.1408 -0.96617,-0.005 z m -3.02928,-3.91115 c -0.0399,-0.04 -0.0726,-0.26182 -0.0726,-0.49302 0,-0.2312 -0.0533,-0.47361 -0.1183,-0.53867 -0.0651,-0.0651 -0.1396,-0.48612 -0.16562,-0.93566 -0.0413,-0.714 -0.0713,-0.81737 -0.23765,-0.81737 -0.14441,0 -0.19035,-0.0749 -0.19035,-0.31038 0,-0.25319 0.056,-0.32994 0.30396,-0.41636 0.20657,-0.072 0.39004,-0.26413 0.57263,-0.5996 0.33666,-0.61857 0.58251,-0.71081 1.85913,-0.69756 1.32659,0.0138 1.42943,0.0529 1.79004,0.67972 0.17623,0.30636 0.4,0.55614 0.52976,0.59132 0.12356,0.0335 0.27609,0.12288 0.33893,0.19861 0.15661,0.18869 0.0233,0.55425 -0.20199,0.55425 -0.15707,0 -0.17674,0.065 -0.13415,0.44277 0.0289,0.25647 -0.0191,0.68028 -0.11419,1.00726 -0.0903,0.31046 -0.16411,0.72905 -0.16411,0.93021 0,0.36565 -9e-5,0.36573 -0.45766,0.36573 h -0.45766 v -0.45766 -0.45766 h -1.11316 -1.11314 l -0.031,0.48308 c -0.0303,0.47276 -0.0387,0.48374 -0.39058,0.51335 -0.19778,0.0167 -0.39228,-0.002 -0.43224,-0.0424 z m 3.58697,-3.2678 c -8.6e-4,-0.0419 -0.10519,-0.25895 -0.23159,-0.48222 -0.2052,-0.36232 -0.28427,-0.41427 -0.73566,-0.4834 -0.51299,-0.0786 -1.66257,-0.01 -1.84973,0.11142 -0.12196,0.0787 -0.43581,0.67189 -0.43581,0.82373 0,0.07 0.55888,0.10681 1.62723,0.10681 0.89498,0 1.62648,-0.0344 1.62556,-0.0763 z"
         style="fill:#ff7800;fill-opacity:1;stroke-width:0.10170222;opacity:1" />
    </g>
  </g>
</svg>
