<?xml version="1.0" encoding="UTF-8" standalone="no"?>
<!-- Created with Inkscape (http://www.inkscape.org/) -->

<svg
   xmlns:dc="http://purl.org/dc/elements/1.1/"
   xmlns:cc="http://creativecommons.org/ns#"
   xmlns:rdf="http://www.w3.org/1999/02/22-rdf-syntax-ns#"
   xmlns:svg="http://www.w3.org/2000/svg"
   xmlns="http://www.w3.org/2000/svg"
   xmlns:sodipodi="http://sodipodi.sourceforge.net/DTD/sodipodi-0.dtd"
   xmlns:inkscape="http://www.inkscape.org/namespaces/inkscape"
   width="12.284018mm"
   height="10.223513mm"
   viewBox="0 0 12.284018 10.223513"
   version="1.1"
   id="svg9885"
   inkscape:version="0.92.2 (5c3e80d, 2017-08-06)"
   sodipodi:docname="i-pbrake.svg">
  <defs
     id="defs9879" />
  <sodipodi:namedview
     id="base"
     pagecolor="#ffffff"
     bordercolor="#666666"
     borderopacity="1.0"
     inkscape:pageopacity="0.0"
     inkscape:pageshadow="2"
     inkscape:zoom="11.2"
     inkscape:cx="12.178701"
     inkscape:cy="18.070018"
     inkscape:document-units="mm"
     inkscape:current-layer="flowRoot1238"
     showgrid="false"
     fit-margin-top="0"
     fit-margin-left="0"
     fit-margin-right="0"
     fit-margin-bottom="0"
     inkscape:window-width="1680"
     inkscape:window-height="987"
     inkscape:window-x="-8"
     inkscape:window-y="-8"
     inkscape:window-maximized="1" />
  <metadata
     id="metadata9882">
    <rdf:RDF>
      <cc:Work
         rdf:about="">
        <dc:format>image/svg+xml</dc:format>
        <dc:type
           rdf:resource="http://purl.org/dc/dcmitype/StillImage" />
        <dc:title />
      </cc:Work>
    </rdf:RDF>
  </metadata>
  <g
     inkscape:label="Layer 1"
     inkscape:groupmode="layer"
     id="layer1"
     transform="translate(-118.82539,-140.15777)">
    <g
       aria-label="BRAKE"
       transform="matrix(0.09528034,0,0,0.16696073,243.29183,52.048218)"
       style="font-style:normal;font-weight:normal;font-size:40px;line-height:1.25;font-family:sans-serif;letter-spacing:0px;word-spacing:0px;fill:#ff0000;fill-opacity:1;stroke:none"
       id="flowRoot1238">
      <path
         d="m -1294.6382,573.10157 c 3.84,0 6.52,-0.6 8.08,-1.76 1.56,-1.16 2.32,-3.16 2.32,-5.92 0,-4.28 -1.6,-6.2 -4.8,-6.88 2.84,-0.76 4.2,-2.52 4.2,-6.04 0,-2.8 -0.76,-4.76 -2.32,-5.84 -1.52,-1.08 -4.2,-1.64 -8.08,-1.64 h -10.48 c -0.4,0 -0.6,0.2 -0.6,0.6 v 26.88 c 0,0.4 0.2,0.6 0.6,0.6 z m -6.16,-23.48 h 6 c 3.16,0 4.28,0.96 4.28,3.64 0,2.12 -1.44,3.2 -4.28,3.2 h -6 z m 0,11.04 h 6.28 c 3.36,0 4.84,0.88 4.84,4.04 0,2.84 -1.16,3.8 -4.52,3.8 h -6.6 z"
         style="font-style:normal;font-variant:normal;font-weight:bold;font-stretch:normal;font-family:objet;-inkscape-font-specification:'objet Bold';fill:#ff0000"
         id="path819" />
      <path
         d="m -1274.8738,573.06157 c 0.4,0 0.6,-0.2 0.6,-0.6 v -8.52 h 6.4 l 3.44,8.64 c 0.12,0.32 0.36,0.48 0.72,0.48 h 4.76 c 0.52,0 0.64,-0.24 0.44,-0.72 l -4.4,-9 c 3.4,-1.08 4.76,-3.84 4.76,-8.84 0,-3.44 -0.68,-5.88 -2.08,-7.28 -1.36,-1.44 -3.72,-2.16 -7.08,-2.16 h -11.92 c -0.4,0 -0.6,0.2 -0.6,0.6 v 26.8 c 0,0.4 0.2,0.6 0.6,0.6 z m 0.6,-23.36 h 6.28 c 3.32,0 4.28,1.08 4.28,4.76 0,1.96 -0.32,3.24 -0.92,3.88 -0.6,0.64 -1.72,0.96 -3.36,0.96 h -6.28 z"
         style="font-style:normal;font-variant:normal;font-weight:bold;font-stretch:normal;font-family:objet;-inkscape-font-specification:'objet Bold';fill:#ff0000"
         id="path821" />
      <path
         d="m -1249.9207,573.06157 c 0.36,0 0.56,-0.16 0.68,-0.48 l 2,-5.24 h 10.08 l 2,5.24 c 0.12,0.32 0.36,0.48 0.72,0.48 h 4.76 c 0.48,0 0.64,-0.24 0.48,-0.68 l -9.92,-26.84 c -0.12,-0.32 -0.32,-0.48 -0.68,-0.48 h -4.76 c -0.36,0 -0.56,0.16 -0.68,0.48 l -9.92,26.84 c -0.16,0.44 0,0.68 0.48,0.68 z m 7.72,-21.52 3.76,11 h -7.52 z"
         style="font-style:normal;font-variant:normal;font-weight:bold;font-stretch:normal;font-family:objet;-inkscape-font-specification:'objet Bold';fill:#ff0000"
         id="path823" />
      <path
         d="m -1220.7313,573.06157 c 0.4,0 0.6,-0.2 0.6,-0.6 v -8.28 l 3.52,-3.72 8.24,12.2 c 0.2,0.28 0.44,0.4 0.72,0.4 h 5.48 c 0.56,0 0.68,-0.24 0.4,-0.72 l -11,-16.08 9.84,-10.48 c 0.36,-0.36 0.2,-0.72 -0.32,-0.72 h -5.6 c -0.28,0 -0.52,0.12 -0.72,0.32 l -10.56,11.36 v -11.08 c 0,-0.4 -0.2,-0.6 -0.6,-0.6 h -4.44 c -0.4,0 -0.6,0.2 -0.6,0.6 v 26.8 c 0,0.4 0.2,0.6 0.6,0.6 z"
         style="font-style:normal;font-variant:normal;font-weight:bold;font-stretch:normal;font-family:objet;-inkscape-font-specification:'objet Bold';fill:#ff0000"
         id="path825" />
      <path
         d="m -1177.9932,573.06157 c 0.4,0 0.6,-0.2 0.6,-0.6 v -3.56 c 0,-0.4 -0.2,-0.6 -0.6,-0.6 h -14.68 v -7.24 h 9.28 c 0.4,0 0.6,-0.2 0.6,-0.6 v -3.32 c 0,-0.4 -0.2,-0.6 -0.6,-0.6 h -9.28 v -6.72 h 14.52 c 0.4,0 0.6,-0.2 0.6,-0.6 v -3.56 c 0,-0.4 -0.2,-0.6 -0.6,-0.6 h -19.44 c -0.4,0 -0.6,0.2 -0.6,0.6 v 26.8 c 0,0.4 0.2,0.6 0.6,0.6 z"
         style="font-style:normal;font-variant:normal;font-weight:bold;font-stretch:normal;font-family:objet;-inkscape-font-specification:'objet Bold';fill:#ff0000"
         id="path827" />
    </g>
  </g>
</svg>
