<?xml version="1.0" encoding="UTF-8" standalone="no"?>
<!-- Created with Inkscape (http://www.inkscape.org/) -->

<svg
   xmlns:dc="http://purl.org/dc/elements/1.1/"
   xmlns:cc="http://creativecommons.org/ns#"
   xmlns:rdf="http://www.w3.org/1999/02/22-rdf-syntax-ns#"
   xmlns:svg="http://www.w3.org/2000/svg"
   xmlns="http://www.w3.org/2000/svg"
   xmlns:sodipodi="http://sodipodi.sourceforge.net/DTD/sodipodi-0.dtd"
   xmlns:inkscape="http://www.inkscape.org/namespaces/inkscape"
   width="12.284018mm"
   height="10.223513mm"
   viewBox="0 0 12.284018 10.223513"
   version="1.1"
   id="svg9885"
   inkscape:version="0.92.2 (5c3e80d, 2017-08-06)"
   sodipodi:docname="i-seatbelt.svg">
  <defs
     id="defs9879" />
  <sodipodi:namedview
     id="base"
     pagecolor="#ffffff"
     bordercolor="#666666"
     borderopacity="1.0"
     inkscape:pageopacity="0.0"
     inkscape:pageshadow="2"
     inkscape:zoom="11.2"
     inkscape:cx="26.68763"
     inkscape:cy="18.070018"
     inkscape:document-units="mm"
     inkscape:current-layer="layer10"
     showgrid="false"
     fit-margin-top="0"
     fit-margin-left="0"
     fit-margin-right="0"
     fit-margin-bottom="0"
     inkscape:window-width="1680"
     inkscape:window-height="987"
     inkscape:window-x="-8"
     inkscape:window-y="-8"
     inkscape:window-maximized="1" />
  <metadata
     id="metadata9882">
    <rdf:RDF>
      <cc:Work
         rdf:about="">
        <dc:format>image/svg+xml</dc:format>
        <dc:type
           rdf:resource="http://purl.org/dc/dcmitype/StillImage" />
        <dc:title />
      </cc:Work>
    </rdf:RDF>
  </metadata>
  <g
     inkscape:groupmode="layer"
     id="layer10"
     inkscape:label="Layer 5"
     transform="translate(-118.82539,-140.15777)"
     style="display:inline">
    <g
       id="g6523"
       transform="matrix(0.09016829,0,0,0.09016829,129.5903,109.15471)">
      <path
         inkscape:connector-curvature="0"
         id="path6443"
         d="m -24.575332,357.8533 -17.180346,17.18034 c 2.599968,1.23879 4.975397,2.49339 6.517431,3.3321 l 15.588713,-15.58871 z m -54.45249,54.45248 -16.228984,16.22899 c -1.010988,0.96604 -1.393922,1.37343 -1.619022,1.61902 l -0.269751,0.26975 0.0021,0.002 c -0.007,0.008 -0.136425,0.14056 -0.136425,0.14056 l 5.058606,4.78317 1.905825,-1.90635 c 2.248684,-2.13093 6.583469,-5.85889 12.522235,-9.1891 -0.642321,-3.6265 -1.109123,-7.63847 -1.234551,-11.94811 z m 53.933658,5.87975 c -0.01985,0.30754 -0.03307,0.48472 -0.03307,0.48472 0,0 -0.135102,2.82692 -0.835091,6.99183 4.0249,2.54279 8.170968,5.75414 12.424566,9.75961 l 4.7754166,-5.07049 c -5.5119856,-5.19046 -10.9807926,-9.17545 -16.3318186,-12.16567 z"
         style="color:#000000;font-style:normal;font-variant:normal;font-weight:normal;font-stretch:normal;font-size:medium;line-height:normal;font-family:sans-serif;font-variant-ligatures:normal;font-variant-position:normal;font-variant-caps:normal;font-variant-numeric:normal;font-variant-alternates:normal;font-feature-settings:normal;text-indent:0;text-align:start;text-decoration:none;text-decoration-line:none;text-decoration-style:solid;text-decoration-color:#000000;letter-spacing:normal;word-spacing:normal;text-transform:none;writing-mode:lr-tb;direction:ltr;text-orientation:mixed;dominant-baseline:auto;baseline-shift:baseline;text-anchor:start;white-space:normal;shape-padding:0;clip-rule:nonzero;display:inline;overflow:visible;visibility:visible;opacity:1;isolation:auto;mix-blend-mode:normal;color-interpolation:sRGB;color-interpolation-filters:linearRGB;solid-color:#000000;solid-opacity:1;vector-effect:none;fill:#ff0000;fill-opacity:1;fill-rule:nonzero;stroke:none;stroke-width:6.96500015;stroke-linecap:butt;stroke-linejoin:miter;stroke-miterlimit:4;stroke-dasharray:none;stroke-dashoffset:0;stroke-opacity:1;color-rendering:auto;image-rendering:auto;shape-rendering:auto;text-rendering:auto;enable-background:accumulate" />
      <path
         inkscape:connector-curvature="0"
         id="path6441-3"
         d="m -52.223253,345.80494 c -1.90569,0.0353 -5.4506,0.73177 -8.62274,4.82916 -3.47808,4.22258 -2.64255,8.13274 -1.97972,10.18077 0.66281,2.04803 1.50466,3.58671 4.04731,5.76089 4.41354,4.51278 -0.17778,7.30395 -0.17778,7.30395 l -4.91339,2.07894 c -4.4613,1.88748 -8.12665,5.4808 -8.12665,5.4808 0,0 -6.04739,3.59078 -6.99233,25.13542 -0.086,1.96034 -0.0934,3.87215 -0.0393,5.73091 l 37.27214,-37.27214 c -0.68377,-0.32578 -1.37975,-0.65025 -2.08153,-0.9648 -2.87477,-1.28852 -3.52039,-4.01688 -1.50223,-6.46782 2.01813,-2.45094 5.8604,-3.90759 4.91546,-11.74192 -1.15969,-9.61491 -10.40557,-9.94978 -10.40557,-9.94978 0,0 -0.52748,-0.12041 -1.39371,-0.10438 z m 16.98552,32.56028 -34.96996,34.96996 c 12.24709,-4.08169 28.08483,-4.66629 45.11405,4.84983 0.13239,-2.05144 0.57466,-10.61621 -0.41135,-21.62658 -1.13393,-12.6622 -7.9375,-17.19792 -7.9375,-17.19792 0,0 -0.68611,-0.39203 -1.79524,-0.99529 z m -17.1974,38.93923 c -5.95857,-0.042 -11.43031,1.12908 -16.33698,2.85099 -3.3065,1.16035 -6.32854,2.58836 -9.02065,4.09794 2.12539,11.99979 6.17431,19.74091 6.17431,19.74091 l 5.85907,10.01644 9.50433,0.0656 c -0.40493,-0.93686 -8.38467,-19.41792 -8.93743,-22.36607 -0.56698,-3.02382 7.74827,-3.40186 13.60691,-3.40186 5.85862,0 11.71712,1.70067 11.71712,1.70067 0,0 1.70126,0.37783 1.1343,2.4567 -0.51633,1.89319 -5.26377,15.53843 -8.53437,21.67257 l 8.91212,0.0615 c 0,0 2.07894,-0.37834 7.37061,-11.71763 2.78003,-5.95723 4.24916,-12.21007 5.02398,-16.82016 -9.5755,-6.04958 -18.46424,-8.3012 -26.47332,-8.35763 z"
         style="fill:#ff0000;fill-opacity:1;stroke:none;stroke-width:0.26458332px;stroke-linecap:butt;stroke-linejoin:miter;stroke-opacity:1" />
    </g>
  </g>
</svg>
