<?xml version="1.0" encoding="UTF-8" standalone="no"?>
<!-- Created with Inkscape (http://www.inkscape.org/) -->

<svg
   xmlns:dc="http://purl.org/dc/elements/1.1/"
   xmlns:cc="http://creativecommons.org/ns#"
   xmlns:rdf="http://www.w3.org/1999/02/22-rdf-syntax-ns#"
   xmlns:svg="http://www.w3.org/2000/svg"
   xmlns="http://www.w3.org/2000/svg"
   xmlns:sodipodi="http://sodipodi.sourceforge.net/DTD/sodipodi-0.dtd"
   xmlns:inkscape="http://www.inkscape.org/namespaces/inkscape"
   width="12.284018mm"
   height="10.223513mm"
   viewBox="0 0 12.284018 10.223513"
   version="1.1"
   id="svg9885"
   inkscape:version="0.92.2 (5c3e80d, 2017-08-06)"
   sodipodi:docname="i-trac.svg">
  <defs
     id="defs9879" />
  <sodipodi:namedview
     id="base"
     pagecolor="#ffffff"
     bordercolor="#666666"
     borderopacity="1.0"
     inkscape:pageopacity="0.0"
     inkscape:pageshadow="2"
     inkscape:zoom="11.2"
     inkscape:cx="26.68763"
     inkscape:cy="18.070018"
     inkscape:document-units="mm"
     inkscape:current-layer="layer11"
     showgrid="false"
     fit-margin-top="0"
     fit-margin-left="0"
     fit-margin-right="0"
     fit-margin-bottom="0"
     inkscape:window-width="1680"
     inkscape:window-height="987"
     inkscape:window-x="-8"
     inkscape:window-y="-8"
     inkscape:window-maximized="1" />
  <metadata
     id="metadata9882">
    <rdf:RDF>
      <cc:Work
         rdf:about="">
        <dc:format>image/svg+xml</dc:format>
        <dc:type
           rdf:resource="http://purl.org/dc/dcmitype/StillImage" />
        <dc:title />
      </cc:Work>
    </rdf:RDF>
  </metadata>
  <g
     inkscape:groupmode="layer"
     id="layer11"
     inkscape:label="Layer 6"
     transform="translate(-118.82539,-140.15777)"
     style="display:inline">
    <g
       aria-label="TRAC. MODE"
       transform="matrix(0.10490126,0,0,0.12220651,237.14409,100.08775)"
       style="font-style:normal;font-weight:normal;font-size:40px;line-height:32.42834854px;font-family:sans-serif;letter-spacing:0px;word-spacing:0px;fill:#ff7800;fill-opacity:1;stroke:none"
       id="flowRoot1312">
      <path
         d="m -1111.6094,366.99254 v -23.78906 h -6.9726 v -4.84375 h 18.6523 v 4.84375 h -6.9531 v 23.78906 z"
         style="font-style:normal;font-variant:normal;font-weight:bold;font-stretch:normal;line-height:32.42834854px;font-family:'Arial Narrow';-inkscape-font-specification:'Arial Narrow Bold';fill:#ff7800;fill-opacity:1"
         id="path1322"
         inkscape:connector-curvature="0" />
      <path
         d="m -1096.8047,366.99254 v -28.63281 h 9.9805 q 3.8281,0 5.4687,0.78125 1.6407,0.76172 2.6953,2.67578 1.0547,1.89453 1.0547,4.55078 0,3.35938 -1.6211,5.41016 -1.6015,2.05078 -4.5703,2.57812 1.5235,1.09375 2.5196,2.40235 0.996,1.28906 2.7148,4.64844 l 2.8516,5.58593 h -5.6446 l -3.4375,-6.23047 q -1.8554,-3.3789 -2.5195,-4.21875 -0.6641,-0.85937 -1.4063,-1.17187 -0.7421,-0.33203 -2.3828,-0.33203 h -0.9765 v 11.95312 z m 4.7266,-16.52343 h 3.5156 q 3.2227,0 4.1016,-0.27344 0.8789,-0.29297 1.4257,-1.15235 0.5469,-0.85937 0.5469,-2.28515 0,-1.36719 -0.5469,-2.1875 -0.5468,-0.83985 -1.4843,-1.15235 -0.6641,-0.21484 -3.8477,-0.21484 h -3.7109 z"
         style="font-style:normal;font-variant:normal;font-weight:bold;font-stretch:normal;line-height:32.42834854px;font-family:'Arial Narrow';-inkscape-font-specification:'Arial Narrow Bold';fill:#ff7800;fill-opacity:1"
         id="path1324"
         inkscape:connector-curvature="0" />
      <path
         d="m -1051.9805,366.99254 h -5.1562 l -2.0508,-6.5039 h -9.375 l -1.9336,6.5039 h -5.0391 l 9.1407,-28.63281 h 5.0195 z m -8.7304,-11.32812 -3.2227,-10.625 -3.1836,10.625 z"
         style="font-style:normal;font-variant:normal;font-weight:bold;font-stretch:normal;line-height:32.42834854px;font-family:'Arial Narrow';-inkscape-font-specification:'Arial Narrow Bold';fill:#ff7800;fill-opacity:1"
         id="path1326"
         inkscape:connector-curvature="0" />
      <path
         d="m -1034.4414,356.4652 4.5898,1.77734 q -1.0742,4.80469 -3.5742,7.03125 -2.5,2.20703 -6.1523,2.20703 -4.5899,0 -7.4414,-3.53515 -3.2813,-4.08203 -3.2813,-11.01563 0,-7.32422 3.3008,-11.46484 2.8711,-3.59375 7.7148,-3.59375 3.9454,0 6.6016,2.69531 1.8945,1.91406 2.7734,5.6836 l -4.6875,1.36718 q -0.4492,-2.32422 -1.7968,-3.55468 -1.3282,-1.25 -3.1446,-1.25 -2.5976,0 -4.2382,2.26562 -1.6407,2.26563 -1.6407,7.48047 0,5.41016 1.6016,7.69531 1.6016,2.28516 4.1601,2.28516 1.875,0 3.2422,-1.44531 1.3672,-1.46485 1.9727,-4.62891 z"
         style="font-style:normal;font-variant:normal;font-weight:bold;font-stretch:normal;line-height:32.42834854px;font-family:'Arial Narrow';-inkscape-font-specification:'Arial Narrow Bold';fill:#ff7800;fill-opacity:1"
         id="path1328"
         inkscape:connector-curvature="0" />
      <path
         d="m -1025.8281,366.99254 v -5.48828 h 4.5117 v 5.48828 z"
         style="font-style:normal;font-variant:normal;font-weight:bold;font-stretch:normal;line-height:32.42834854px;font-family:'Arial Narrow';-inkscape-font-specification:'Arial Narrow Bold';fill:#ff7800;fill-opacity:1"
         id="path1330"
         inkscape:connector-curvature="0" />
      <path
         d="m -1116.9609,399.88393 v -28.63281 h 7.0898 l 4.2578,19.53125 4.2188,-19.53125 h 7.1093 v 28.63281 h -4.3945 v -22.53906 l -4.668,22.53906 h -4.5703 l -4.6289,-22.53906 v 22.53906 z"
         style="font-style:normal;font-variant:normal;font-weight:bold;font-stretch:normal;line-height:32.42834854px;font-family:'Arial Narrow';-inkscape-font-specification:'Arial Narrow Bold';fill:#ff7800;fill-opacity:1"
         id="path1332"
         inkscape:connector-curvature="0" />
      <path
         d="m -1090.4961,385.74331 q 0,-5.11719 1.5039,-8.41797 1.5234,-3.32032 3.9649,-4.94141 2.4414,-1.62109 5.9179,-1.62109 5.0391,0 8.2031,3.84765 3.1836,3.84766 3.1836,10.95703 0,7.1875 -3.3593,11.23047 -2.9493,3.57422 -8.0078,3.57422 -5.0977,0 -8.0469,-3.53515 -3.3594,-4.04297 -3.3594,-11.09375 z m 4.8828,-0.19532 q 0,4.94141 1.875,7.42188 1.875,2.46094 4.6485,2.46094 2.7929,0 4.6289,-2.44141 1.8359,-2.46094 1.8359,-7.53906 0,-4.98047 -1.7969,-7.36328 -1.7773,-2.38282 -4.6679,-2.38282 -2.8907,0 -4.7071,2.40235 -1.8164,2.40234 -1.8164,7.4414 z"
         style="font-style:normal;font-variant:normal;font-weight:bold;font-stretch:normal;line-height:32.42834854px;font-family:'Arial Narrow';-inkscape-font-specification:'Arial Narrow Bold';fill:#ff7800;fill-opacity:1"
         id="path1334"
         inkscape:connector-curvature="0" />
      <path
         d="m -1064.0313,371.25112 h 8.6524 q 3.2812,0 4.9414,0.74219 1.6797,0.72265 3.0859,2.46093 1.4063,1.73828 2.2071,4.51172 0.8007,2.77344 0.8007,6.89453 0,3.71094 -0.8398,6.46485 -0.8398,2.73437 -2.1289,4.33593 -1.2891,1.60157 -3.125,2.42188 -1.8164,0.80078 -4.6875,0.80078 h -8.9063 z m 4.7266,4.84375 v 18.96484 h 3.5547 q 2.2852,0 3.3008,-0.42969 1.0351,-0.42968 1.6797,-1.28906 0.664,-0.8789 1.0937,-2.7539 0.4297,-1.875 0.4297,-4.94141 0,-3.18359 -0.4492,-5.01953 -0.4297,-1.83594 -1.3672,-2.89063 -0.918,-1.05468 -2.2461,-1.38672 -0.9961,-0.2539 -3.8477,-0.2539 z"
         style="font-style:normal;font-variant:normal;font-weight:bold;font-stretch:normal;line-height:32.42834854px;font-family:'Arial Narrow';-inkscape-font-specification:'Arial Narrow Bold';fill:#ff7800;fill-opacity:1"
         id="path1336"
         inkscape:connector-curvature="0" />
      <path
         d="m -1040.3203,399.88393 v -28.63281 h 17.4219 v 4.84375 h -12.6954 v 6.34765 h 11.7969 v 4.82422 h -11.7969 v 7.79297 h 13.1251 v 4.82422 z"
         style="font-style:normal;font-variant:normal;font-weight:bold;font-stretch:normal;line-height:32.42834854px;font-family:'Arial Narrow';-inkscape-font-specification:'Arial Narrow Bold';fill:#ff7800;fill-opacity:1"
         id="path1338"
         inkscape:connector-curvature="0" />
    </g>
  </g>
</svg>
