<?xml version="1.0" encoding="UTF-8" standalone="no"?>
<svg
   xmlns:dc="http://purl.org/dc/elements/1.1/"
   xmlns:cc="http://creativecommons.org/ns#"
   xmlns:rdf="http://www.w3.org/1999/02/22-rdf-syntax-ns#"
   xmlns:svg="http://www.w3.org/2000/svg"
   xmlns="http://www.w3.org/2000/svg"
   xmlns:sodipodi="http://sodipodi.sourceforge.net/DTD/sodipodi-0.dtd"
   xmlns:inkscape="http://www.inkscape.org/namespaces/inkscape"
   version="1.1"
   width="24"
   height="24"
   viewBox="0 0 24 24"
   id="svg4"
   sodipodi:docname="oil-temperature.svg"
   inkscape:version="0.92.2 (5c3e80d, 2017-08-06)">
  <metadata
     id="metadata10">
    <rdf:RDF>
      <cc:Work
         rdf:about="">
        <dc:format>image/svg+xml</dc:format>
        <dc:type
           rdf:resource="http://purl.org/dc/dcmitype/StillImage" />
      </cc:Work>
    </rdf:RDF>
  </metadata>
  <defs
     id="defs8" />
  <sodipodi:namedview
     pagecolor="#ffffff"
     bordercolor="#666666"
     borderopacity="1"
     objecttolerance="10"
     gridtolerance="10"
     guidetolerance="10"
     inkscape:pageopacity="0"
     inkscape:pageshadow="2"
     inkscape:window-width="1920"
     inkscape:window-height="1017"
     id="namedview6"
     showgrid="false"
     inkscape:zoom="9.8333333"
     inkscape:cx="12"
     inkscape:cy="12"
     inkscape:window-x="-8"
     inkscape:window-y="-8"
     inkscape:window-maximized="1"
     inkscape:current-layer="svg4" />
  <path
     d="M10 5H13V3H10V2C10 1.4 9.6 1 9 1S8 1.4 8 2V15.3C7.4 15.6 7 16.3 7 17C7 18.1 7.9 19 9 19S11 18.1 11 17C11 16.3 10.6 15.6 10 15.3V13H13V11H10V9H13V7H10V5M22 17.5C22 17.5 24 19.7 24 21C24 22.1 23.1 23 22 23S20 22.1 20 21C20 19.7 22 17.5 22 17.5M22.9 15.5C22.6 16 22 16.1 21.5 15.9L19.4 14.7L15.8 21C15.5 21.6 14.8 22 14 22H5C3.9 22 3 21.1 3 20V17C3 15.9 3.9 15 5 15V20H14L16.1 16.4L13 18.2V15.8L19.2 12.2L22.5 14.1C23 14.4 23.1 15 22.9 15.5M3.5 13.9L1.8 15.6C1.4 16 .8 16 .4 15.6S0 14.6.4 14.2L2.1 12.5C2.5 12.1 3.1 12.1 3.5 12.5S3.9 13.5 3.5 13.9Z"
     id="path2"
     style="fill:#ffffff" />
</svg>
