<?xml version="1.0" encoding="UTF-8" standalone="no"?>
<!-- Created with Inkscape (http://www.inkscape.org/) -->

<svg
   xmlns:dc="http://purl.org/dc/elements/1.1/"
   xmlns:cc="http://creativecommons.org/ns#"
   xmlns:rdf="http://www.w3.org/1999/02/22-rdf-syntax-ns#"
   xmlns:svg="http://www.w3.org/2000/svg"
   xmlns="http://www.w3.org/2000/svg"
   xmlns:sodipodi="http://sodipodi.sourceforge.net/DTD/sodipodi-0.dtd"
   xmlns:inkscape="http://www.inkscape.org/namespaces/inkscape"
   width="54.073029mm"
   height="27.557831mm"
   viewBox="0 0 54.073029 27.557831"
   version="1.1"
   id="svg7322"
   inkscape:version="0.92.2 (5c3e80d, 2017-08-06)"
   sodipodi:docname="rc-fa.svg">
  <defs
     id="defs7316" />
  <sodipodi:namedview
     id="base"
     pagecolor="#ffffff"
     bordercolor="#666666"
     borderopacity="1.0"
     inkscape:pageopacity="0.0"
     inkscape:pageshadow="2"
     inkscape:zoom="2.8"
     inkscape:cx="14.681802"
     inkscape:cy="43.913052"
     inkscape:document-units="mm"
     inkscape:current-layer="g5354"
     showgrid="false"
     fit-margin-top="0"
     fit-margin-left="0"
     fit-margin-right="0"
     fit-margin-bottom="0"
     inkscape:window-width="1920"
     inkscape:window-height="1017"
     inkscape:window-x="-8"
     inkscape:window-y="-8"
     inkscape:window-maximized="1" />
  <metadata
     id="metadata7319">
    <rdf:RDF>
      <cc:Work
         rdf:about="">
        <dc:format>image/svg+xml</dc:format>
        <dc:type
           rdf:resource="http://purl.org/dc/dcmitype/StillImage" />
        <dc:title />
      </cc:Work>
    </rdf:RDF>
  </metadata>
  <g
     inkscape:label="Layer 1"
     inkscape:groupmode="layer"
     id="layer1"
     transform="translate(180.46345,-9.5702966)">
    <g
       id="g5354"
       transform="translate(57.790676,-92.235)"
       style="opacity:1;fill:#ffffff">
      <path
         sodipodi:nodetypes="cccc"
         inkscape:connector-curvature="0"
         id="path5318"
         d="m -237.84151,103.66516 c 0,0 4.39397,-1.22842 8.9297,1.03944 5.56562,3.57601 13.73273,12.79628 17.15066,13.04017 4.34672,0.18899 12.47321,0.18899 12.47321,0.18899"
         style="fill:none;stroke:#ffffff;stroke-width:3.06500006;stroke-linecap:butt;stroke-linejoin:miter;stroke-miterlimit:4;stroke-dasharray:none;stroke-opacity:1" />
      <path
         inkscape:transform-center-x="-1.1938667"
         d="m -202.43164,121.97492 0,-4.13566 0,-4.13567 3.58159,2.06783 3.58159,2.06784 -3.58159,2.06783 z"
         inkscape:randomized="0"
         inkscape:rounded="0"
         inkscape:flatsided="false"
         sodipodi:arg2="3.1415927"
         sodipodi:arg1="2.0943951"
         sodipodi:r2="2.3877282"
         sodipodi:r1="4.7754564"
         sodipodi:cy="117.83926"
         sodipodi:cx="-200.04391"
         sodipodi:sides="3"
         id="path5320"
         style="opacity:1;fill:#ffffff;fill-opacity:0.9748744;stroke:#000000;stroke-width:0;stroke-miterlimit:4;stroke-dasharray:none;stroke-dashoffset:0;stroke-opacity:1"
         sodipodi:type="star" />
      <path
         sodipodi:nodetypes="ccc"
         inkscape:connector-curvature="0"
         id="path5322"
         d="m -201.74478,108.10638 h -9.16593 c 0,0 -2.83482,0.18899 -5.10268,2.83482"
         style="fill:none;stroke:#ffffff;stroke-width:2.16499996;stroke-linecap:butt;stroke-linejoin:miter;stroke-miterlimit:4;stroke-dasharray:none;stroke-opacity:1" />
      <path
         sodipodi:nodetypes="cccccccscccccccccccccccsccccccccccccccsccssccsccccccccccccccccccsccscccccscccscccccccccccccccccccccccscccccsccccccc"
         inkscape:connector-curvature="0"
         id="path5324"
         d="m -206.80502,102.07404 c -2.14179,0.0111 -4.28215,0.0534 -5.94744,0.11937 -0.83264,0.033 -1.54396,0.0717 -2.0898,0.11679 -0.27291,0.0225 -0.50367,0.0459 -0.69918,0.0744 -0.19551,0.0285 -0.28491,-0.003 -0.61546,0.16794 -0.27703,0.14306 -0.42291,0.28573 -0.62477,0.47078 -0.20187,0.18504 -0.42244,0.40699 -0.66043,0.65629 -0.47598,0.49859 -1.0182,1.10649 -1.53479,1.70119 -1.03317,1.18939 -1.96318,2.32389 -1.96318,2.32389 l 1.44332,1.18184 c 0,0 0.91661,-1.11715 1.92805,-2.28152 0.50572,-0.58219 1.03385,-1.17728 1.47432,-1.63866 0.22024,-0.2307 0.41982,-0.42788 0.57258,-0.56792 0.0705,-0.0647 0.13521,-0.11396 0.18138,-0.14883 0.0254,-0.008 0.0384,-0.0148 0.0682,-0.0191 0.13084,-0.0191 0.33264,-0.0419 0.58239,-0.0625 0.49951,-0.0412 1.19497,-0.0793 2.01176,-0.11162 1.63359,-0.0647 3.75878,-0.10635 5.88233,-0.11731 2.12356,-0.011 4.2493,0.009 5.87716,0.0687 0.81393,0.0295 1.50504,0.0693 1.9942,0.11679 0.23856,0.0231 0.42565,0.049 0.54312,0.0708 -0.007,0.005 0.0279,0.0348 0.13849,0.20102 0.14488,0.21776 0.32981,0.52699 0.53537,0.89039 0.4111,0.7268 0.90432,1.67002 1.38854,2.61327 0.48422,0.94325 0.96023,1.88764 1.35134,2.63705 0.19555,0.3747 0.36995,0.69836 0.5178,0.9586 0.14785,0.26025 0.18963,0.39605 0.44545,0.66042 0.33462,0.3458 0.55899,0.35566 0.80822,0.42375 0.24924,0.0681 0.5199,0.11837 0.82424,0.16433 0.60868,0.0919 1.34543,0.16384 2.1115,0.23823 1.43216,0.13907 2.90643,0.32791 3.55275,0.50591 0.0777,0.22649 0.17164,0.60337 0.25373,1.06402 0.16569,0.9297 0.29462,2.19667 0.33228,3.46697 0.0377,1.2703 -0.019,2.55413 -0.19172,3.49591 -0.0863,0.47089 -0.20398,0.85655 -0.31626,1.08417 -0.06,0.12161 -0.10927,0.18174 -0.13539,0.21033 -0.0837,0.0108 -0.33233,0.0599 -0.62632,0.0827 -0.43164,0.0335 -1.06462,-0.005 -1.79712,0.019 0,0 -2.97344,-0.0754 -3.31216,0.28415 -0.44697,0.47445 -0.7193,1.72261 -0.7193,1.72261 l -6.46007,0.0238 c 0,0 -0.18649,-1.36958 -1.3091,-1.72825 -0.48287,-0.15427 -20.78203,-0.31244 -20.78203,-0.31244 -0.41655,-0.006 -0.67389,1.83708 -0.67389,1.83708 l -6.43734,-0.093 c 0,0 -0.26162,-1.27798 -0.95555,-1.76135 0,0 -5.32633,-0.20637 -5.41977,-0.20805 -7.9e-4,-0.006 -0.004,-0.015 -0.0124,-0.0315 -0.0838,-0.15872 -0.189,-0.46014 -0.27182,-0.83974 -0.16565,-0.75921 -0.25596,-1.82917 -0.26355,-2.92024 -0.008,-1.09106 0.0629,-2.21221 0.1912,-3.09748 0.0642,-0.44264 0.14434,-0.82803 0.22479,-1.10536 0.0359,-0.12373 0.0777,-0.22234 0.11008,-0.29404 0.0444,-0.0207 0.10102,-0.0434 0.17518,-0.0579 0.26633,-0.0519 0.68062,-0.0981 1.17357,-0.13074 0.98589,-0.0653 2.29513,-0.0887 3.64681,-0.14056 1.35168,-0.0518 2.74472,-0.13004 3.95686,-0.32401 1.21215,-0.19396 2.26827,-0.4073 3.01377,-1.21491 l -1.37098,-1.26556 c -0.10494,0.11369 -0.86959,0.46811 -1.9358,0.63872 -1.06621,0.17061 -2.40795,0.25146 -3.73414,0.30231 -1.32616,0.0508 -2.63645,0.0722 -3.69951,0.14263 -0.53153,0.0352 -1.00009,0.0807 -1.40818,0.16019 -0.40809,0.0795 -0.78016,0.0821 -1.20303,0.5824 -0.29178,0.34522 -0.39995,0.68248 -0.51573,1.08158 -0.11578,0.3991 -0.20618,0.85486 -0.27905,1.35754 -0.14575,1.00537 -0.21904,2.19682 -0.21084,3.37706 0.008,1.18025 0.0956,2.3405 0.30644,3.30677 0.10542,0.48314 0.23755,0.91875 0.44545,1.31259 0.20789,0.39385 0.51612,0.8059 1.06608,0.97823 l 0.12713,0.0393 0.13487,0.002 c 0,0 2.71374,0.0446 4.80591,0.0791 0.35659,2.51091 2.52807,4.45761 5.13354,4.45761 2.55253,0 4.68233,-1.86982 5.10304,-4.30671 2.79185,0.0366 5.7775,0.0723 8.77983,0.1018 3.48017,0.0342 6.94896,0.0592 10.19421,0.0703 0.37419,2.49084 2.52901,4.41782 5.1201,4.41782 2.60651,0 4.77827,-1.94833 5.13354,-4.46071 0.81219,-0.014 1.58723,-0.0294 2.2257,-0.0506 0.74832,-0.0248 1.36867,-0.0548 1.84795,-0.092 0.47929,-0.0372 0.71773,-0.0227 1.13843,-0.18138 0.57587,-0.21711 0.91937,-0.67854 1.15032,-1.1467 0.23094,-0.46817 0.3725,-0.99218 0.47852,-1.57045 0.21205,-1.15652 0.26299,-2.53082 0.22273,-3.88865 -0.0403,-1.35782 -0.17409,-2.68981 -0.36122,-3.73982 -0.0936,-0.52501 -0.19629,-0.97435 -0.32814,-1.35548 -0.0659,-0.19057 -0.13532,-0.36365 -0.24392,-0.54312 -0.10859,-0.17947 -0.24214,-0.42022 -0.65629,-0.5643 -1.0896,-0.37908 -2.70766,-0.48686 -4.23436,-0.63511 -0.76336,-0.0741 -1.48464,-0.14642 -2.01383,-0.22634 -0.25871,-0.0391 -0.47061,-0.0821 -0.59997,-0.11679 -0.0413,-0.06 -0.0866,-0.12365 -0.13436,-0.20774 -0.12741,-0.22426 -0.29414,-0.5371 -0.48472,-0.90227 -0.38116,-0.73034 -0.85909,-1.6738 -1.34721,-2.62464 -0.48812,-0.95085 -0.9854,-1.90783 -1.42213,-2.67994 -0.21837,-0.38606 -0.42015,-0.7245 -0.6072,-1.00562 -0.18705,-0.28113 -0.29241,-0.48566 -0.62735,-0.73278 -0.35892,-0.26481 -0.49313,-0.2274 -0.7028,-0.26716 -0.20968,-0.0398 -0.44651,-0.0691 -0.72451,-0.0961 -0.556,-0.0539 -1.27197,-0.0927 -2.10736,-0.12299 -1.67078,-0.0606 -3.81134,-0.0814 -5.95312,-0.0703 z m 13.99295,8.65115 c -4e-5,-0.002 0.0103,0.005 0.0341,0.0248 -0.021,-0.0123 -0.0341,-0.023 -0.0341,-0.0248 z m -36.07016,13.92008 c 1.95459,0.0306 3.9082,0.0583 6.43734,0.093 -0.3727,1.42609 -1.65691,2.46858 -3.20601,2.46858 -1.58271,0 -2.891,-1.08781 -3.23133,-2.5616 z m 35.66243,0.27285 c -0.33653,1.47909 -1.64748,2.57194 -3.23391,2.57194 -1.57787,0 -2.88138,-1.08126 -3.22616,-2.54816 0,0 6.46007,-0.0238 6.46007,-0.0238 z"
         style="color:#000000;font-style:normal;font-variant:normal;font-weight:normal;font-stretch:normal;font-size:medium;line-height:normal;font-family:sans-serif;font-variant-ligatures:normal;font-variant-position:normal;font-variant-caps:normal;font-variant-numeric:normal;font-variant-alternates:normal;font-feature-settings:normal;text-indent:0;text-align:start;text-decoration:none;text-decoration-line:none;text-decoration-style:solid;text-decoration-color:#000000;letter-spacing:normal;word-spacing:normal;text-transform:none;writing-mode:lr-tb;direction:ltr;text-orientation:mixed;dominant-baseline:auto;baseline-shift:baseline;text-anchor:start;white-space:normal;shape-padding:0;clip-rule:nonzero;display:inline;overflow:visible;visibility:visible;opacity:1;isolation:auto;mix-blend-mode:normal;color-interpolation:sRGB;color-interpolation-filters:linearRGB;solid-color:#000000;solid-opacity:1;vector-effect:none;fill:#ffffff;fill-opacity:1;fill-rule:nonzero;stroke:none;stroke-width:1.86500001;stroke-linecap:butt;stroke-linejoin:miter;stroke-miterlimit:4;stroke-dasharray:none;stroke-dashoffset:0;stroke-opacity:1;color-rendering:auto;image-rendering:auto;shape-rendering:auto;text-rendering:auto;enable-background:accumulate" />
    </g>
  </g>
</svg>
