<?xml version="1.0" encoding="UTF-8" standalone="no"?>
<!-- Created with Inkscape (http://www.inkscape.org/) -->

<svg
   xmlns:dc="http://purl.org/dc/elements/1.1/"
   xmlns:cc="http://creativecommons.org/ns#"
   xmlns:rdf="http://www.w3.org/1999/02/22-rdf-syntax-ns#"
   xmlns:svg="http://www.w3.org/2000/svg"
   xmlns="http://www.w3.org/2000/svg"
   xmlns:xlink="http://www.w3.org/1999/xlink"
   xmlns:sodipodi="http://sodipodi.sourceforge.net/DTD/sodipodi-0.dtd"
   xmlns:inkscape="http://www.inkscape.org/namespaces/inkscape"
   width="125.79047mm"
   height="125.79047mm"
   viewBox="0 0 125.79047 125.79047"
   version="1.1"
   id="svg1117"
   inkscape:version="0.92.2 (5c3e80d, 2017-08-06)"
   sodipodi:docname="speedo-circle2.svg">
  <defs
     id="defs1111">
    <linearGradient
       inkscape:collect="always"
       id="linearGradient1701">
      <stop
         style="stop-color:#000000;stop-opacity:0"
         offset="0"
         id="stop1693" />
      <stop
         id="stop1695"
         offset="0.85411936"
         style="stop-color:#000000;stop-opacity:0" />
      <stop
         style="stop-color:#042684;stop-opacity:0.99215686"
         offset="0.93118125"
         id="stop1697" />
      <stop
         style="stop-color:#0098ff;stop-opacity:1"
         offset="1"
         id="stop1699" />
    </linearGradient>
    <radialGradient
       inkscape:collect="always"
       xlink:href="#linearGradient3515"
       id="radialGradient3521-2"
       gradientUnits="userSpaceOnUse"
       gradientTransform="matrix(0.0048941,0.96412438,-0.96120949,0.0048793,215.5981,-89.650837)"
       cx="147.61249"
       cy="234.48796"
       fx="147.61249"
       fy="234.48796"
       r="62.895237" />
    <linearGradient
       id="linearGradient3515"
       inkscape:collect="always">
      <stop
         id="stop3511"
         offset="0"
         style="stop-color:#000000;stop-opacity:0" />
      <stop
         style="stop-color:#000000;stop-opacity:0.03921569"
         offset="0.85411936"
         id="stop3567" />
      <stop
         id="stop3683"
         offset="0.93118125"
         style="stop-color:#042684;stop-opacity:0.99215686" />
      <stop
         id="stop3513"
         offset="1"
         style="stop-color:#0098ff;stop-opacity:1" />
    </linearGradient>
    <radialGradient
       inkscape:collect="always"
       xlink:href="#linearGradient1701"
       id="radialGradient3521"
       gradientUnits="userSpaceOnUse"
       gradientTransform="matrix(0.0048941,0.96412439,-0.96120949,0.0048793,215.59812,-89.68863)"
       cx="147.61249"
       cy="234.48796"
       fx="147.61249"
       fy="234.48796"
       r="62.895237" />
    <filter
       inkscape:collect="always"
       style="color-interpolation-filters:sRGB"
       id="filter5177"
       x="-0.012"
       width="1.024"
       y="-0.012"
       height="1.024">
      <feGaussianBlur
         inkscape:collect="always"
         stdDeviation="0.61421127"
         id="feGaussianBlur5179" />
    </filter>
  </defs>
  <sodipodi:namedview
     id="base"
     pagecolor="#ffffff"
     bordercolor="#666666"
     borderopacity="1.0"
     inkscape:pageopacity="0.0"
     inkscape:pageshadow="2"
     inkscape:zoom="1.4"
     inkscape:cx="129.80839"
     inkscape:cy="250.13724"
     inkscape:document-units="mm"
     inkscape:current-layer="flowRoot1869-8"
     showgrid="false"
     fit-margin-top="0"
     fit-margin-left="0"
     fit-margin-right="0"
     fit-margin-bottom="0"
     inkscape:window-width="1688"
     inkscape:window-height="878"
     inkscape:window-x="-8"
     inkscape:window-y="-8"
     inkscape:window-maximized="1" />
  <metadata
     id="metadata1114">
    <rdf:RDF>
      <cc:Work
         rdf:about="">
        <dc:format>image/svg+xml</dc:format>
        <dc:type
           rdf:resource="http://purl.org/dc/dcmitype/StillImage" />
        <dc:title></dc:title>
      </cc:Work>
    </rdf:RDF>
  </metadata>
  <g
     inkscape:label="Layer 1"
     inkscape:groupmode="layer"
     id="layer1"
     transform="translate(71.966666,9.3119023)">
    <circle
       r="61.421131"
       cy="53.621193"
       cx="-9.0713701"
       id="path10-1"
       style="opacity:1;fill:url(#radialGradient3521-2);fill-opacity:1;stroke:#ffffff;stroke-width:0.96499997;stroke-miterlimit:4;stroke-dasharray:none;stroke-dashoffset:0;stroke-opacity:1" />
    <circle
       r="61.421127"
       cy="53.583332"
       cx="-9.0714312"
       id="path10"
       style="opacity:1;fill:url(#radialGradient3521);fill-opacity:1;stroke:#ffffff;stroke-width:0.96499997;stroke-miterlimit:4;stroke-dasharray:none;stroke-dashoffset:0;stroke-opacity:1;filter:url(#filter5177)" />
    <g
       aria-label="0"
       transform="matrix(0.26458333,0,0,0.26458333,-155.74996,-10.83549)"
       style="font-style:normal;font-weight:normal;font-size:40px;line-height:1.25;font-family:sans-serif;letter-spacing:0px;word-spacing:0px;writing-mode:vertical-lr;fill:#ffffff;fill-opacity:1;stroke:none"
       id="flowRoot1869">
      <path
         d="m 410.11023,364.36001 c 4.12,0 6.92,-1 8.4,-2.96 1.52,-1.96 2.28,-5.52 2.28,-10.64 0,-5 -0.76,-8.48 -2.28,-10.44 -1.48,-1.96 -4.28,-2.96 -8.4,-2.96 -4.12,0 -6.96,0.96 -8.48,2.92 -1.48,1.92 -2.24,5.4 -2.24,10.48 0,5.12 0.76,8.68 2.24,10.64 1.52,1.96 4.36,2.96 8.48,2.96 z m 0,-4.6 c -2.28,0 -3.72,-0.56 -4.32,-1.64 -0.6,-1.08 -0.88,-3.56 -0.88,-7.36 0,-3.64 0.32,-6.04 0.92,-7.12 0.6,-1.12 2.04,-1.68 4.28,-1.68 2.2,0 3.64,0.56 4.24,1.68 0.6,1.08 0.92,3.48 0.92,7.12 0,3.8 -0.32,6.24 -0.96,7.36 -0.6,1.08 -2,1.64 -4.2,1.64 z"
         style="font-style:normal;font-variant:normal;font-weight:bold;font-stretch:normal;font-family:Objet;-inkscape-font-specification:'Objet Bold';writing-mode:lr-tb;fill:#ffffff"
         id="path2714" />
    </g>
    <g
       aria-label="1"
       transform="matrix(0.26458333,0,0,0.26458333,-163.74097,-30.107749)"
       style="font-style:normal;font-weight:normal;font-size:40px;line-height:1.25;font-family:sans-serif;letter-spacing:0px;word-spacing:0px;writing-mode:vertical-lr;fill:#ffffff;fill-opacity:1;stroke:none"
       id="flowRoot1869-1">
      <path
         d="m 408.87023,363.96001 c 0.4,0 0.6,-0.2 0.6,-0.6 v -25.2 c 0,-0.4 -0.2,-0.6 -0.6,-0.6 h -3.48 c -0.24,0 -0.48,0.04 -0.72,0.12 l -6.12,2 c -0.32,0.12 -0.48,0.36 -0.48,0.68 v 3.48 c 0,0.48 0.24,0.64 0.68,0.52 l 5.24,-1.28 v 20.28 c 0,0.4 0.2,0.6 0.6,0.6 z"
         style="font-style:normal;font-variant:normal;font-weight:bold;font-stretch:normal;font-family:Objet;-inkscape-font-specification:'Objet Bold';writing-mode:lr-tb;fill:#ffffff"
         id="path2711" />
    </g>
    <g
       aria-label="2"
       transform="matrix(0.26458333,0,0,0.26458333,-163.363,-51.652389)"
       style="font-style:normal;font-weight:normal;font-size:40px;line-height:1.25;font-family:sans-serif;letter-spacing:0px;word-spacing:0px;writing-mode:vertical-lr;fill:#ffffff;fill-opacity:1;stroke:none"
       id="flowRoot1869-6">
      <path
         d="m 418.47023,363.96001 c 0.4,0 0.6,-0.2 0.6,-0.6 v -3.4 c 0,-0.4 -0.2,-0.6 -0.6,-0.6 h -13.44 c 0.04,-1.4 0.52,-2.52 1.44,-3.32 0.92,-0.84 3.12,-2.08 6.52,-3.72 1.92,-0.92 3.4,-2 4.4,-3.2 1.04,-1.2 1.56,-2.88 1.56,-5.04 0,-4.44 -2.84,-6.72 -9.92,-6.72 -3.44,0 -6.36,0.4 -8.76,1.24 -0.32,0.08 -0.48,0.32 -0.48,0.68 v 3.04 c 0,0.44 0.24,0.6 0.68,0.52 2.76,-0.6 5.48,-0.88 8.12,-0.88 3.4,0 4.8,0.6 4.8,2.64 0,0.92 -0.36,1.72 -1.12,2.32 -0.76,0.6 -2.2,1.44 -4.32,2.48 -5.48,2.68 -8.36,5.72 -8.36,9.92 v 4.04 c 0,0.4 0.2,0.6 0.6,0.6 z"
         style="font-style:normal;font-variant:normal;font-weight:bold;font-stretch:normal;font-family:Objet;-inkscape-font-specification:'Objet Bold';writing-mode:lr-tb;fill:#ffffff"
         id="path2708" />
    </g>
    <g
       aria-label="3"
       transform="matrix(0.26458333,0,0,0.26458333,-152.17123,-70.635361)"
       style="font-style:normal;font-weight:normal;font-size:40px;line-height:1.25;font-family:sans-serif;letter-spacing:0px;word-spacing:0px;writing-mode:vertical-lr;fill:#ffffff;fill-opacity:1;stroke:none"
       id="flowRoot1869-8">
      <path
         d="m 407.15023,364.36001 c 3.52,0 5.96,-0.6 7.36,-1.8 1.4,-1.24 2.12,-3.24 2.12,-6 0,-2.04 -0.32,-3.52 -1,-4.44 -0.68,-0.92 -1.92,-1.56 -3.8,-1.88 3.4,-0.84 4.36,-2.52 4.36,-6.04 0,-2.36 -0.72,-4.12 -2.12,-5.2 -1.4,-1.08 -3.88,-1.64 -7.44,-1.64 -2,0 -4.68,0.32 -8,1 -0.36,0.08 -0.52,0.32 -0.52,0.68 v 3.08 c 0,0.44 0.2,0.6 0.64,0.56 2.88,-0.48 5.32,-0.72 7.32,-0.72 3.4,0 4.6,0.96 4.6,3.08 -0.08,2.48 -0.6,3.12 -6.36,3.32 -0.44,0 -0.64,0.2 -0.64,0.6 v 2.72 c 0,0.4 0.2,0.6 0.64,0.6 6.12,0.12 6.72,0.8 6.8,3.44 0,2.92 -1.12,4.04 -4.48,4.04 -2.2,0 -4.8,-0.24 -7.76,-0.72 -0.44,-0.04 -0.64,0.12 -0.64,0.56 v 3.04 c 0,0.36 0.16,0.6 0.52,0.68 3.56,0.68 6.36,1.04 8.4,1.04 z"
         style="font-style:normal;font-variant:normal;font-weight:bold;font-stretch:normal;font-family:Objet;-inkscape-font-specification:'Objet Bold';writing-mode:lr-tb;fill:#ffffff"
         id="path2705" />
    </g>
    <g
       aria-label="4"
       transform="matrix(0.26458333,0,0,0.26458333,-136.26332,-82.796119)"
       style="font-style:normal;font-weight:normal;font-size:40px;line-height:1.25;font-family:sans-serif;letter-spacing:0px;word-spacing:0px;writing-mode:vertical-lr;fill:#ffffff;fill-opacity:1;stroke:none"
       id="flowRoot1869-85">
      <path
         d="m 415.83023,363.96001 c 0.4,0 0.6,-0.2 0.6,-0.6 v -4.16 h 2.4 c 0.4,0 0.6,-0.2 0.6,-0.6 v -3.16 c 0,-0.4 -0.2,-0.6 -0.6,-0.6 h -2.36 v -16.68 c 0,-0.4 -0.2,-0.6 -0.6,-0.6 h -4 c -0.32,0 -0.56,0.12 -0.72,0.36 l -12.64,16.28 c -0.16,0.24 -0.24,0.48 -0.24,0.72 v 3.68 c 0,0.4 0.2,0.6 0.6,0.6 h 12.52 v 4.16 c 0,0.4 0.2,0.6 0.6,0.6 z m -4.4,-19.2 v 10.08 h -7.8 z"
         style="font-style:normal;font-variant:normal;font-weight:bold;font-stretch:normal;font-family:Objet;-inkscape-font-specification:'Objet Bold';writing-mode:lr-tb;fill:#ffffff"
         id="path2702" />
    </g>
    <g
       aria-label="5"
       transform="matrix(0.26458333,0,0,0.26458333,-115.01539,-86.537895)"
       style="font-style:normal;font-weight:normal;font-size:40px;line-height:1.25;font-family:sans-serif;letter-spacing:0px;word-spacing:0px;writing-mode:vertical-lr;fill:#ffffff;fill-opacity:1;stroke:none"
       id="flowRoot1869-69">
      <path
         d="m 408.19023,364.36001 c 3.88,0 6.48,-0.56 7.84,-1.68 1.4,-1.16 2.08,-3.32 2.08,-6.56 0,-3.2 -0.36,-4.96 -1.76,-6.28 -1.32,-1.4 -3.56,-1.8 -7.4,-1.8 h -3.2 l 0.6,-5.88 h 9.56 c 0.4,0 0.6,-0.2 0.6,-0.6 v -3.4 c 0,-0.4 -0.2,-0.6 -0.6,-0.6 h -13.6 c -0.36,0 -0.56,0.2 -0.6,0.56 l -1.44,13.8 c -0.04,0.44 0.12,0.64 0.56,0.64 h 8.12 c 3,-0.04 3.64,0.96 3.64,3.64 0,2.72 -1.24,3.56 -4.4,3.56 -1.68,0 -4.44,-0.16 -8.28,-0.48 -0.44,-0.04 -0.64,0.12 -0.64,0.56 v 2.8 c 0,0.36 0.16,0.6 0.52,0.68 3.48,0.68 6.28,1.04 8.4,1.04 z"
         style="font-style:normal;font-variant:normal;font-weight:bold;font-stretch:normal;font-family:Objet;-inkscape-font-specification:'Objet Bold';writing-mode:lr-tb;fill:#ffffff"
         id="path2699" />
    </g>
    <g
       aria-label="6"
       transform="matrix(0.26458333,0,0,0.26458333,-94.836542,-81.058872)"
       style="font-style:normal;font-weight:normal;font-size:40px;line-height:1.25;font-family:sans-serif;letter-spacing:0px;word-spacing:0px;writing-mode:vertical-lr;fill:#ffffff;fill-opacity:1;stroke:none"
       id="flowRoot1869-3">
      <path
         d="m 408.31023,364.36001 c 3.68,0 6.2,-0.6 7.56,-1.84 1.4,-1.24 2.08,-3.56 2.08,-6.96 0,-2.84 -0.56,-4.88 -1.72,-6.2 -1.12,-1.32 -3.24,-2 -6.36,-2 -1.96,0 -3.84,0.68 -4.6,1.16 -0.36,0.2 -0.64,0.4 -0.76,0.56 v -0.72 c 0,-2.48 0.32,-4.2 0.92,-5.12 0.6,-0.92 1.96,-1.4 4.04,-1.4 1.76,0 3.88,0.24 6.36,0.72 0.44,0.12 0.64,-0.04 0.64,-0.52 v -2.88 c 0,-0.36 -0.16,-0.6 -0.48,-0.72 -2.32,-0.8 -4.68,-1.2 -7.12,-1.2 -4.12,0 -6.6,0.8 -8.04,2.84 -1.44,1.96 -1.84,4.36 -1.84,8.52 v 7.08 c 0,3.24 0.68,5.48 2.08,6.76 1.4,1.28 3.8,1.92 7.24,1.92 z m 0.04,-4.36 c -3,0 -3.84,-1.28 -3.84,-4.44 v -2.52 c 0.32,-0.52 1.84,-1.36 3.76,-1.36 3.2,0 4.12,0.8 4.12,3.88 0,1.72 -0.24,2.88 -0.76,3.52 -0.52,0.6 -1.6,0.92 -3.28,0.92 z"
         style="font-style:normal;font-variant:normal;font-weight:bold;font-stretch:normal;font-family:Objet;-inkscape-font-specification:'Objet Bold';writing-mode:lr-tb;fill:#ffffff"
         id="path2696" />
    </g>
    <g
       aria-label="7"
       transform="matrix(0.26458333,0,0,0.26458333,-78.800372,-66.759949)"
       style="font-style:normal;font-weight:normal;font-size:40px;line-height:1.25;font-family:sans-serif;letter-spacing:0px;word-spacing:0px;writing-mode:vertical-lr;fill:#ffffff;fill-opacity:1;stroke:none"
       id="flowRoot1869-9">
      <path
         d="m 405.39023,364.48001 c 0.32,0 0.56,-0.16 0.72,-0.44 l 11.12,-21.72 c 0.12,-0.24 0.16,-0.48 0.16,-0.76 v -3.4 c 0,-0.4 -0.2,-0.6 -0.6,-0.6 h -17.6 c -0.4,0 -0.6,0.2 -0.6,0.6 v 3.2 c 0,0.4 0.2,0.6 0.6,0.6 h 12.52 l -11.08,21.8 c -0.2,0.48 -0.08,0.72 0.44,0.72 z"
         style="font-style:normal;font-variant:normal;font-weight:bold;font-stretch:normal;font-family:Objet;-inkscape-font-specification:'Objet Bold';writing-mode:lr-tb;fill:#ffffff"
         id="path2693" />
    </g>
    <g
       aria-label="8"
       transform="matrix(0.26458333,0,0,0.26458333,-70.381382,-47.516539)"
       style="font-style:normal;font-weight:normal;font-size:40px;line-height:1.25;font-family:sans-serif;letter-spacing:0px;word-spacing:0px;writing-mode:vertical-lr;fill:#ffffff;fill-opacity:1;stroke:none"
       id="flowRoot1869-62">
      <path
         d="m 399.23023,356.36001 c 0,3.08 0.72,5.16 2.12,6.32 1.4,1.12 3.88,1.68 7.36,1.68 3.48,0 5.96,-0.56 7.36,-1.68 1.44,-1.12 2.16,-3.24 2.16,-6.32 0,-3.24 -1.24,-5.32 -3.68,-6.24 2.24,-1.04 3.36,-2.92 3.36,-5.64 0,-5.16 -2.64,-7.12 -9.2,-7.12 -6.52,0 -9.2,1.96 -9.2,7.12 0,2.88 1.12,4.8 3.36,5.72 -2.44,1 -3.64,3.08 -3.64,6.16 z m 9.48,-7.84 c -2.56,0 -3.92,-0.84 -3.92,-3.52 0,-2.44 1,-3.32 3.92,-3.32 2.92,0 3.92,0.8 3.92,3.32 0,2.68 -1.4,3.52 -3.92,3.52 z m 0,11.24 c -1.68,0 -2.8,-0.24 -3.36,-0.76 -0.56,-0.52 -0.84,-1.56 -0.84,-3.2 0,-2.56 1.16,-3.44 4.2,-3.44 3.04,0 4.24,0.88 4.24,3.44 0,1.64 -0.28,2.68 -0.84,3.2 -0.56,0.52 -1.68,0.76 -3.4,0.76 z"
         style="font-style:normal;font-variant:normal;font-weight:bold;font-stretch:normal;font-family:Objet;-inkscape-font-specification:'Objet Bold';writing-mode:lr-tb;fill:#ffffff"
         id="path2690" />
    </g>
  </g>
</svg>
