<?xml version="1.0" encoding="UTF-8" standalone="no"?>
<!-- Created with Inkscape (http://www.inkscape.org/) -->

<svg
   xmlns:dc="http://purl.org/dc/elements/1.1/"
   xmlns:cc="http://creativecommons.org/ns#"
   xmlns:rdf="http://www.w3.org/1999/02/22-rdf-syntax-ns#"
   xmlns:svg="http://www.w3.org/2000/svg"
   xmlns="http://www.w3.org/2000/svg"
   xmlns:sodipodi="http://sodipodi.sourceforge.net/DTD/sodipodi-0.dtd"
   xmlns:inkscape="http://www.inkscape.org/namespaces/inkscape"
   width="58.07431mm"
   height="52.768345mm"
   viewBox="0 0 58.07431 52.768345"
   version="1.1"
   id="svg6602"
   sodipodi:docname="v-wf.svg"
   inkscape:version="0.92.2 (5c3e80d, 2017-08-06)">
  <defs
     id="defs6596" />
  <sodipodi:namedview
     id="base"
     pagecolor="#ffffff"
     bordercolor="#666666"
     borderopacity="1.0"
     inkscape:pageopacity="0.0"
     inkscape:pageshadow="2"
     inkscape:zoom="1.4"
     inkscape:cx="-65.98161"
     inkscape:cy="60.326384"
     inkscape:document-units="mm"
     inkscape:current-layer="g5395"
     showgrid="false"
     fit-margin-top="0"
     fit-margin-left="0"
     fit-margin-right="0"
     fit-margin-bottom="0"
     inkscape:window-width="1920"
     inkscape:window-height="1017"
     inkscape:window-x="-8"
     inkscape:window-y="-8"
     inkscape:window-maximized="1" />
  <metadata
     id="metadata6599">
    <rdf:RDF>
      <cc:Work
         rdf:about="">
        <dc:format>image/svg+xml</dc:format>
        <dc:type
           rdf:resource="http://purl.org/dc/dcmitype/StillImage" />
        <dc:title />
      </cc:Work>
    </rdf:RDF>
  </metadata>
  <g
     inkscape:label="Layer 1"
     inkscape:groupmode="layer"
     id="layer1"
     transform="translate(-45.856571,-40.050354)">
    <g
       id="g5395"
       transform="translate(109.9135,-41.153138)">
      <path
         sodipodi:nodetypes="cccccccc"
         inkscape:connector-curvature="0"
         id="path1261-3"
         d="m -41.998049,114.27949 h 3.242735 l -5.965033,7.7666 -6.045099,-7.7666 h 3.402872 v -7.96671 h 5.404561 z"
         style="fill:#ffffff;fill-opacity:1;stroke:none;stroke-width:0.22418903px;stroke-linecap:butt;stroke-linejoin:miter;stroke-opacity:1" />
      <circle
         r="4.5088444"
         cy="100.37761"
         cx="-10.350195"
         id="path1267-2"
         style="opacity:1;fill:#ffffff;fill-opacity:1;stroke:none;stroke-width:0.89973497;stroke-miterlimit:4;stroke-dasharray:none;stroke-dashoffset:0;stroke-opacity:1" />
      <path
         sodipodi:nodetypes="csccscscccccccc"
         inkscape:connector-curvature="0"
         id="path1269-4"
         d="m -16.417627,109.85146 c 0,0 1.994269,-4.11525 5.851829,-2.31078 3.7876759,1.77178 1.8132079,5.57969 1.8132079,5.57969 l -5.0724499,10.03217 c 0,0 -1.521735,4.00161 -5.636054,2.81803 -3.839151,-1.10441 -9.243131,-2.81803 -9.243131,-2.81803 0,0 -2.035821,-0.76229 -2.818025,0.33816 -0.888266,1.24964 -6.199659,9.24313 -6.199659,9.24313 0,0 -1.527404,2.36373 -4.14392,0.79589 -2.340961,-1.91343 -0.364933,-4.29024 -0.364933,-4.29024 l 7.777758,-11.32847 c 0,0 1.239938,-1.97262 3.494364,-1.409 2.254415,0.5636 9.01768,2.47985 9.01768,2.47985 0,0 0.795886,0.25787 1.239934,-0.45089 0.563604,-1.12719 4.283399,-8.67951 4.283399,-8.67951 z"
         style="fill:#ffffff;fill-opacity:1;stroke:none;stroke-width:0.22317639px;stroke-linecap:butt;stroke-linejoin:miter;stroke-opacity:1" />
      <path
         sodipodi:nodetypes="ccsccsc"
         inkscape:connector-curvature="0"
         id="path1349-1"
         d="m -42.038139,97.811641 -7.159889,-11.217157 c 0,0 5.884315,-4.271842 16.308636,-4.295928 10.26139,-0.02369 15.751751,4.216377 15.751751,4.216377 l -7.000779,11.296708 c 0,0 -5.330146,-1.272866 -8.671421,-1.272866 -3.341281,0 -9.228298,1.272866 -9.228298,1.272866 z"
         style="fill:none;fill-opacity:0;stroke:#ffffff;stroke-width:2;stroke-linecap:butt;stroke-linejoin:miter;stroke-miterlimit:4;stroke-dasharray:none;stroke-opacity:1" />
      <path
         sodipodi:nodetypes="ccc"
         inkscape:connector-curvature="0"
         id="path1176-6-8"
         d="m -38.881172,89.433018 c 0,0 -2.814234,2.063648 -0.527667,6.900303 2.22793,4.256259 -1.348487,7.545199 -1.348487,7.545199"
         style="fill:none;fill-opacity:1;stroke:#ffffff;stroke-width:2;stroke-linecap:butt;stroke-linejoin:miter;stroke-miterlimit:4;stroke-dasharray:none;stroke-opacity:1" />
      <path
         inkscape:transform-center-y="-0.79404995"
         transform="matrix(0.68635396,-0.43138901,0.35285128,0.83912279,-8.3100903,-80.763851)"
         inkscape:transform-center-x="-0.41868887"
         d="m -117.03088,143.68338 -1.94825,-1.00129 -1.94826,-1.00129 1.84127,-1.18659 1.84127,-1.1866 0.10699,2.18789 z"
         inkscape:randomized="0"
         inkscape:rounded="0"
         inkscape:flatsided="false"
         sodipodi:arg2="2.0455341"
         sodipodi:arg1="0.99833651"
         sodipodi:r2="1.2646855"
         sodipodi:r1="2.529371"
         sodipodi:cy="141.55727"
         sodipodi:cx="-118.40104"
         sodipodi:sides="3"
         id="path1178-9-5"
         style="opacity:1;fill:#ffffff;fill-opacity:1;stroke:#ffffff;stroke-width:1.17306817;stroke-miterlimit:4;stroke-dasharray:none;stroke-dashoffset:0;stroke-opacity:1"
         sodipodi:type="star" />
      <path
         sodipodi:nodetypes="ccc"
         inkscape:connector-curvature="0"
         id="path1176-3-2-9"
         d="m -32.576776,89.437769 c 0,0 -2.814264,2.063641 -0.527684,6.900297 2.227947,4.256264 -1.3485,7.545204 -1.3485,7.545204"
         style="fill:none;fill-opacity:1;stroke:#ffffff;stroke-width:2;stroke-linecap:butt;stroke-linejoin:miter;stroke-miterlimit:4;stroke-dasharray:none;stroke-opacity:1" />
      <path
         inkscape:transform-center-y="-0.79405206"
         transform="matrix(0.68635396,-0.43138901,0.35285128,0.83912279,-2.0263983,-80.758588)"
         inkscape:transform-center-x="-0.41868945"
         d="m -117.03088,143.68338 -1.94825,-1.00129 -1.94826,-1.00129 1.84127,-1.18659 1.84127,-1.1866 0.10699,2.18789 z"
         inkscape:randomized="0"
         inkscape:rounded="0"
         inkscape:flatsided="false"
         sodipodi:arg2="2.0455341"
         sodipodi:arg1="0.99833651"
         sodipodi:r2="1.2646855"
         sodipodi:r1="2.529371"
         sodipodi:cy="141.55727"
         sodipodi:cx="-118.40104"
         sodipodi:sides="3"
         id="path1178-4-9-4"
         style="opacity:1;fill:#ffffff;fill-opacity:1;stroke:#ffffff;stroke-width:1.17306817;stroke-miterlimit:4;stroke-dasharray:none;stroke-dashoffset:0;stroke-opacity:1"
         sodipodi:type="star" />
      <path
         sodipodi:nodetypes="ccc"
         inkscape:connector-curvature="0"
         id="path1176-2-1-9"
         d="m -26.279083,89.437769 c 0,0 -2.814246,2.063641 -0.527666,6.900297 2.227923,4.256264 -1.348512,7.545204 -1.348512,7.545204"
         style="fill:none;fill-opacity:1;stroke:#ffffff;stroke-width:2;stroke-linecap:butt;stroke-linejoin:miter;stroke-miterlimit:4;stroke-dasharray:none;stroke-opacity:1" />
      <path
         inkscape:transform-center-y="-0.79405206"
         transform="matrix(0.68635396,-0.43138901,0.35285128,0.83912279,4.2506197,-80.758588)"
         inkscape:transform-center-x="-0.41868888"
         d="m -117.03088,143.68338 -1.94825,-1.00129 -1.94826,-1.00129 1.84127,-1.18659 1.84127,-1.1866 0.10699,2.18789 z"
         inkscape:randomized="0"
         inkscape:rounded="0"
         inkscape:flatsided="false"
         sodipodi:arg2="2.0455341"
         sodipodi:arg1="0.99833651"
         sodipodi:r2="1.2646855"
         sodipodi:r1="2.529371"
         sodipodi:cy="141.55727"
         sodipodi:cx="-118.40104"
         sodipodi:sides="3"
         id="path1178-0-3-9"
         style="opacity:1;fill:#ffffff;fill-opacity:1;stroke:#ffffff;stroke-width:1.17306817;stroke-miterlimit:4;stroke-dasharray:none;stroke-dashoffset:0;stroke-opacity:1"
         sodipodi:type="star" />
    </g>
  </g>
</svg>
