<?xml version="1.0" encoding="UTF-8" standalone="no"?>
<!-- Created with Inkscape (http://www.inkscape.org/) -->

<svg
   xmlns:dc="http://purl.org/dc/elements/1.1/"
   xmlns:cc="http://creativecommons.org/ns#"
   xmlns:rdf="http://www.w3.org/1999/02/22-rdf-syntax-ns#"
   xmlns:svg="http://www.w3.org/2000/svg"
   xmlns="http://www.w3.org/2000/svg"
   xmlns:sodipodi="http://sodipodi.sourceforge.net/DTD/sodipodi-0.dtd"
   xmlns:inkscape="http://www.inkscape.org/namespaces/inkscape"
   width="22.323595mm"
   height="22.2258mm"
   viewBox="0 0 22.323595 22.225799"
   version="1.1"
   id="svg6602"
   sodipodi:docname="x-fan.svg"
   inkscape:version="0.92.2 (5c3e80d, 2017-08-06)">
  <defs
     id="defs6596" />
  <sodipodi:namedview
     id="base"
     pagecolor="#ffffff"
     bordercolor="#666666"
     borderopacity="1.0"
     inkscape:pageopacity="0.0"
     inkscape:pageshadow="2"
     inkscape:zoom="0.98994949"
     inkscape:cx="83.526397"
     inkscape:cy="-57.62753"
     inkscape:document-units="mm"
     inkscape:current-layer="layer1"
     showgrid="false"
     fit-margin-top="0"
     fit-margin-left="0"
     fit-margin-right="0"
     fit-margin-bottom="0"
     inkscape:window-width="1920"
     inkscape:window-height="1017"
     inkscape:window-x="-8"
     inkscape:window-y="-8"
     inkscape:window-maximized="1" />
  <metadata
     id="metadata6599">
    <rdf:RDF>
      <cc:Work
         rdf:about="">
        <dc:format>image/svg+xml</dc:format>
        <dc:type
           rdf:resource="http://purl.org/dc/dcmitype/StillImage" />
        <dc:title />
      </cc:Work>
    </rdf:RDF>
  </metadata>
  <g
     inkscape:label="Layer 1"
     inkscape:groupmode="layer"
     id="layer1"
     transform="translate(125.83758,-79.287905)">
    <g
       id="g5407"
       transform="matrix(0.72212271,0,0,0.72212271,247.86064,42.135482)"
       style="fill:#ffffff">
      <path
         sodipodi:nodetypes="ccscccsssscsccsccc"
         inkscape:connector-curvature="0"
         id="path1472"
         d="m -504.59422,65.807218 c -0.60796,0.302048 -2.69237,0.09623 -2.69237,0.09623 -1.54673,-0.113044 -2.12398,-0.31274 -2.82195,-0.785263 -0.93413,-0.632381 -1.92245,-1.518638 -2.48143,-2.225154 -0.27936,-0.353064 -1.29177,-2.106407 -1.42599,-2.469605 -0.37105,-1.003829 -0.37455,-2.451372 -0.009,-3.588708 0.41816,-1.299841 1.16047,-2.319935 2.43361,-3.344284 0.54242,-0.43643 1.7609,-1.151972 2.35916,-1.385402 0.98422,-0.384025 1.8252,-0.58037 2.74219,-0.640217 1.49891,-0.09783 2.56863,0.252774 3.44159,1.127998 0.29557,0.296341 0.7715,1.06441 0.9183,1.481929 0.23309,0.663115 0.29153,1.247169 0.18338,1.832914 -0.0396,0.214548 -0.25379,0.962271 -0.47597,1.66161 -0.67312,2.118785 -0.86536,3.028988 -0.83925,3.973525 0.0159,0.572837 0.23365,1.477408 0.44309,1.840174 0.0955,0.165447 0.38218,1.000759 0.8075,1.03816 -2.27103,1.382862 -0.22018,-0.01711 -2.58286,1.386089 z"
         style="fill:#ffffff;stroke-width:0.03681839" />
      <path
         sodipodi:nodetypes="ccscccsssscsccsccc"
         inkscape:connector-curvature="0"
         id="path1472-7"
         d="m -499.38651,67.868998 c 0.60796,-0.30205 2.69237,-0.0962 2.69237,-0.0962 1.54673,0.11304 2.12398,0.31274 2.82195,0.78526 0.93413,0.63238 1.92245,1.51864 2.48143,2.22515 0.27936,0.35307 1.29177,2.10641 1.42599,2.46961 0.37105,1.00383 0.37455,2.45137 0.009,3.58871 -0.41816,1.29984 -1.16047,2.31993 -2.43361,3.34428 -0.54242,0.43643 -1.7609,1.15197 -2.35916,1.3854 -0.98422,0.38403 -1.8252,0.58037 -2.74219,0.64022 -1.49891,0.0978 -2.56863,-0.25277 -3.44159,-1.128 -0.29557,-0.29634 -0.7715,-1.06441 -0.9183,-1.48193 -0.23309,-0.66311 -0.29153,-1.24717 -0.18338,-1.83291 0.0396,-0.21455 0.25379,-0.96227 0.47597,-1.66161 0.67312,-2.11879 0.86536,-3.02899 0.83925,-3.97353 -0.0159,-0.57283 -0.23365,-1.4774 -0.44309,-1.84017 -0.0955,-0.16545 -0.38218,-1.00076 -0.8075,-1.03816 2.27103,-1.38286 0.22018,0.0171 2.58286,-1.38609 z"
         style="fill:#ffffff;stroke-width:0.03681839" />
      <path
         sodipodi:nodetypes="ccscccsssscsccsccc"
         inkscape:connector-curvature="0"
         id="path1472-76"
         d="m -500.94409,64.435473 c -0.30205,-0.60796 -0.0962,-2.69237 -0.0962,-2.69237 0.11304,-1.54673 0.31274,-2.12398 0.78526,-2.82195 0.63238,-0.93413 1.51864,-1.92245 2.22515,-2.48143 0.35307,-0.27936 2.10641,-1.29177 2.46961,-1.42599 1.00383,-0.37105 2.45137,-0.37455 3.58871,-0.009 1.29984,0.41816 2.31993,1.16047 3.34428,2.43361 0.43643,0.54242 1.15197,1.7609 1.3854,2.35916 0.38403,0.98422 0.58037,1.8252 0.64022,2.74219 0.0978,1.49891 -0.25277,2.56863 -1.128,3.44159 -0.29634,0.29557 -1.06441,0.7715 -1.48193,0.9183 -0.66311,0.23309 -1.24717,0.29153 -1.83291,0.18338 -0.21455,-0.0396 -0.96227,-0.25379 -1.66161,-0.47597 -2.11879,-0.67312 -3.02899,-0.86536 -3.97353,-0.83925 -0.57283,0.0159 -1.4774,0.23365 -1.84017,0.44309 -0.16545,0.0955 -1.00076,0.38218 -1.03816,0.8075 -1.38286,-2.27103 0.0171,-0.22018 -1.38609,-2.58286 z"
         style="fill:#ffffff;stroke-width:0.03681839" />
      <path
         sodipodi:nodetypes="ccscccsssscsccsccc"
         inkscape:connector-curvature="0"
         id="path1472-5"
         d="m -503.14128,69.392339 c 0.30205,0.60796 0.0962,2.69237 0.0962,2.69237 -0.11304,1.54673 -0.31274,2.12398 -0.78526,2.82195 -0.63238,0.93413 -1.51864,1.92245 -2.22515,2.48143 -0.35307,0.27936 -2.10641,1.29177 -2.46961,1.42599 -1.00383,0.37105 -2.45137,0.37455 -3.58871,0.009 -1.29984,-0.41816 -2.31993,-1.16047 -3.34428,-2.43361 -0.43643,-0.54242 -1.15197,-1.7609 -1.3854,-2.35916 -0.38403,-0.98422 -0.58037,-1.8252 -0.64022,-2.74219 -0.0978,-1.49891 0.25277,-2.56863 1.128,-3.44159 0.29634,-0.29557 1.06441,-0.7715 1.48193,-0.9183 0.66311,-0.23309 1.24717,-0.29153 1.83291,-0.18338 0.21455,0.0396 0.96227,0.25379 1.66161,0.47597 2.11879,0.67312 3.02899,0.86536 3.97353,0.83925 0.57283,-0.0159 1.4774,-0.23365 1.84017,-0.44309 0.16545,-0.0955 1.00076,-0.38218 1.03816,-0.8075 1.38286,2.27103 -0.0171,0.22018 1.38609,2.58286 z"
         style="fill:#ffffff;stroke-width:0.03681839" />
      <circle
         r="3.6415472"
         cy="66.847511"
         cx="-502.09921"
         id="path1501"
         style="opacity:1;fill:#ffffff;fill-opacity:1;stroke:none;stroke-width:2;stroke-miterlimit:4;stroke-dasharray:none;stroke-dashoffset:0;stroke-opacity:1" />
    </g>
  </g>
</svg>
