<?xml version="1.0" encoding="UTF-8" standalone="no"?>
<svg
   xmlns:dc="http://purl.org/dc/elements/1.1/"
   xmlns:cc="http://creativecommons.org/ns#"
   xmlns:rdf="http://www.w3.org/1999/02/22-rdf-syntax-ns#"
   xmlns:svg="http://www.w3.org/2000/svg"
   xmlns="http://www.w3.org/2000/svg"
   xmlns:sodipodi="http://sodipodi.sourceforge.net/DTD/sodipodi-0.dtd"
   xmlns:inkscape="http://www.inkscape.org/namespaces/inkscape"
   inkscape:version="1.0beta2 (2b71d25, 2019-12-03)"
   sodipodi:docname="engine-coolant-svgrepo-com.svg"
   xml:space="preserve"
   style="enable-background:new 0 0 191.851 191.851;"
   viewBox="0 0 191.851 191.851"
   y="0px"
   x="0px"
   id="Capa_1"
   version="1.1"><metadata
   id="metadata55"><rdf:RDF><cc:Work
       rdf:about=""><dc:format>image/svg+xml</dc:format><dc:type
         rdf:resource="http://purl.org/dc/dcmitype/StillImage" /><dc:title></dc:title></cc:Work></rdf:RDF></metadata><defs
   id="defs53" /><sodipodi:namedview
   inkscape:current-layer="Capa_1"
   inkscape:window-maximized="0"
   inkscape:window-y="23"
   inkscape:window-x="0"
   inkscape:cy="95.925499"
   inkscape:cx="95.925499"
   inkscape:zoom="3.5027183"
   showgrid="false"
   id="namedview51"
   inkscape:window-height="1005"
   inkscape:window-width="1680"
   inkscape:pageshadow="2"
   inkscape:pageopacity="0"
   guidetolerance="10"
   gridtolerance="10"
   objecttolerance="10"
   borderopacity="1"
   inkscape:document-rotation="0"
   bordercolor="#666666"
   pagecolor="#ffffff" />
<path
   inkscape:connector-curvature="0"
   id="path73"
   d="M 32.403405,143.23478 C 20.259522,141.65905 9.498371,135.16227 2.8085265,125.36759 c -1.99916489,-2.927 -2.52303394,-4.23162 -2.52303394,-6.28323 0,-6.30855 7.51079984,-9.65478 12.08223744,-5.38291 0.442905,0.41389 1.490604,1.78029 2.32822,3.03646 3.516852,5.2742 9.051751,9.31742 15.044846,10.9902 11.195042,3.12473 23.020629,-1.28031 29.503806,-10.9902 0.838725,-1.25617 1.887334,-2.62257 2.330241,-3.03646 4.555771,-4.25723 12.150392,-0.88927 12.135381,5.38165 -0.0051,2.11899 -0.277465,2.78811 -2.473796,6.07684 -6.390374,9.56875 -16.745631,16.10093 -28.280341,17.83945 -2.573056,0.38781 -8.379752,0.51734 -10.552682,0.23539 z"
   style="opacity:1;fill:#0000ff;stroke:#000000;stroke-width:0.107903;stop-color:#000000" /><path
   inkscape:connector-curvature="0"
   id="path75"
   d="M 33.545375,178.08152 C 23.460065,176.98301 14.761297,172.8849 7.8057054,165.9552 c -2.8186021,-2.80811 -5.4547129,-6.2427 -6.7351083,-8.77518 -2.4744534,-4.89418 0.9691077,-10.59601 6.4049969,-10.60535 3.028758,-0.005 4.536406,0.9649 6.872767,4.42234 5.403258,7.99596 13.45155,12.41143 22.622925,12.41143 9.032065,0 17.263612,-4.4492 22.409547,-12.11247 0.838552,-1.24877 1.856435,-2.58301 2.261963,-2.96499 1.961976,-1.84805 5.284502,-2.30318 7.874641,-1.07869 1.651124,0.78057 2.405818,1.55357 4.213531,4.31571 3.296394,5.03681 8.714437,8.98598 14.937002,10.88745 2.333356,0.71302 2.941864,0.77827 7.257529,0.77827 4.315661,0 4.924171,-0.0652 7.257531,-0.77827 6.27238,-1.91669 11.60167,-5.80167 14.93506,-10.88745 1.81164,-2.76405 2.56524,-3.53556 4.21547,-4.31571 2.59014,-1.22449 5.91267,-0.76936 7.87464,1.07869 0.40553,0.38198 1.42341,1.71622 2.26196,2.96499 5.14594,7.66327 13.37749,12.11247 22.40955,12.11247 9.17138,0 17.21967,-4.41547 22.62293,-12.41143 2.33773,-3.45947 3.84807,-4.43055 6.87276,-4.41886 5.45012,0.0211 8.88227,5.70212 6.405,10.60187 -2.14345,4.2395 -7.19813,9.85682 -11.91931,13.24607 -4.75431,3.41302 -11.13879,6.09725 -17.06573,7.17495 -3.56709,0.64861 -10.29885,0.63779 -13.89121,-0.0223 -7.52367,-1.3825 -15.09913,-5.04048 -20.36604,-9.83422 -1.06302,-0.96751 -1.99984,-1.75912 -2.08181,-1.75912 -0.082,0 -1.11773,0.84482 -2.30168,1.87738 -5.5012,4.79777 -12.00432,7.98537 -19.52082,9.56843 -4.254975,0.89615 -11.156737,0.89668 -15.4166,0.001 -5.478648,-1.15165 -10.252729,-3.08559 -14.702867,-5.95597 -2.038705,-1.31499 -5.708278,-4.20085 -6.397214,-5.03097 -0.209977,-0.253 -0.475457,-0.46001 -0.589959,-0.46001 -0.1145,0 -1.094424,0.78396 -2.177609,1.74213 -5.599845,4.95356 -12.954613,8.51384 -20.253687,9.80437 -2.624667,0.46407 -8.517647,0.77107 -10.550489,0.54965 z"
   style="opacity:1;fill:#0000ff;stroke:#000000;stroke-width:0.107903;stop-color:#000000" /><path
   inkscape:connector-curvature="0"
   id="path77"
   d="m 92.071349,154.45101 c -4.167373,-0.95481 -7.283258,-2.75982 -10.365599,-6.00473 -2.178888,-2.2938 -3.973233,-5.5133 -4.78388,-8.58348 -0.5925,-2.24398 -0.59032,-7.14863 0.0042,-9.42125 0.639856,-2.44598 2.472585,-6.0119 4.068279,-7.9156 1.617251,-1.92942 4.202421,-3.99306 6.295013,-5.02506 l 1.498836,-0.73919 0.0016,-48.402883 c 0.0011,-32.462864 0.09884,-48.753082 0.296914,-49.466274 0.482952,-1.73896 1.947906,-3.414368 3.790851,-4.335444 3.777177,-1.887775 8.023627,-0.415172 9.799467,3.398305 0.62602,1.344317 0.66587,1.764921 0.6685,7.055213 l 0.003,5.625671 13.77501,0.08418 13.77502,0.08418 1.54753,0.856478 c 3.8647,2.138907 5.06518,6.729003 2.72812,10.431141 -0.79467,1.258851 -2.8034,2.6858 -4.40854,3.131731 -0.59303,0.164749 -6.4532,0.28099 -14.21311,0.281923 l -13.20403,0.0016 v 6.406051 6.406053 l 13.63226,0.0889 c 13.123,0.08558 13.68039,0.111176 14.92019,0.685056 2.37241,1.098133 4.11593,3.41464 4.46013,5.925906 0.37201,2.714067 -1.41416,6.0256 -3.99439,7.405552 -1.16803,0.62468 -1.35498,0.633522 -15.10043,0.714191 l -13.91776,0.08168 v 6.556023 6.556022 l 13.63226,0.0029 13.63227,0.0029 1.42747,0.666143 c 3.77772,1.762919 5.41682,6.268788 3.58593,9.857646 -0.73871,1.44799 -2.83469,3.272616 -4.24452,3.695016 -0.79014,0.2366 -5.08897,0.33561 -14.57701,0.33561 h -13.4564 v 7.9369 7.93691 l 1.35609,0.65654 c 5.06038,2.44996 9.02776,7.30384 10.52387,12.87538 0.67236,2.50387 0.66953,7.22079 -0.006,9.70675 -1.7985,6.62025 -6.73123,11.82508 -13.15886,13.88477 -2.823214,0.90468 -7.375879,1.16014 -9.992234,0.56069 z"
   style="opacity:1;fill:#0000ff;stroke:#000000;stroke-width:0.107903;stop-color:#000000" /><path
   inkscape:connector-curvature="0"
   id="path79"
   d="m 148.64686,142.98393 c -11.19417,-1.74135 -21.81193,-8.46455 -27.95912,-17.70381 -2.27437,-3.4184 -2.54187,-4.06925 -2.54697,-6.19702 -0.015,-6.27092 7.57961,-9.63888 12.13539,-5.38165 0.4429,0.41389 1.49374,1.78029 2.3352,3.03646 7.28032,10.86839 20.99268,14.92493 32.97575,9.75526 4.38119,-1.89012 8.82835,-5.63715 11.56027,-9.74033 2.33803,-3.51158 3.7563,-4.60604 6.36831,-4.91436 5.62993,-0.66456 9.89112,5.43294 7.34264,10.50685 -2.83278,5.63994 -8.50781,11.42431 -15.06418,15.35442 -7.90733,4.73991 -18.00764,6.70592 -27.14729,5.28418 z"
   style="opacity:1;fill:#0000ff;stroke:#000000;stroke-width:0.107903;stop-color:#000000" />
<g
   id="g20">
</g>
<g
   id="g22">
</g>
<g
   id="g24">
</g>
<g
   id="g26">
</g>
<g
   id="g28">
</g>
<g
   id="g30">
</g>
<g
   id="g32">
</g>
<g
   id="g34">
</g>
<g
   id="g36">
</g>
<g
   id="g38">
</g>
<g
   id="g40">
</g>
<g
   id="g42">
</g>
<g
   id="g44">
</g>
<g
   id="g46">
</g>
<g
   id="g48">
</g>
</svg>
