<?xml version="1.0" encoding="UTF-8" standalone="no"?>
<svg
   xmlns:dc="http://purl.org/dc/elements/1.1/"
   xmlns:cc="http://creativecommons.org/ns#"
   xmlns:rdf="http://www.w3.org/1999/02/22-rdf-syntax-ns#"
   xmlns:svg="http://www.w3.org/2000/svg"
   xmlns="http://www.w3.org/2000/svg"
   xmlns:xlink="http://www.w3.org/1999/xlink"
   xmlns:sodipodi="http://sodipodi.sourceforge.net/DTD/sodipodi-0.dtd"
   xmlns:inkscape="http://www.inkscape.org/namespaces/inkscape"
   sodipodi:docname="needle.svg"
   inkscape:version="1.0beta2 (2b71d25, 2019-12-03)"
   id="svg139"
   version="1.1"
   viewBox="0 0 147.27596 147.27596"
   height="147.27596mm"
   width="147.27596mm">
  <defs
     id="defs133">
    <radialGradient
       gradientTransform="matrix(-0.08865315,-0.01254747,0.01234287,-0.08720721,149.8182,85.553227)"
       gradientUnits="userSpaceOnUse"
       r="180.3074"
       fy="351.815"
       fx="217.64172"
       cy="351.815"
       cx="217.64172"
       id="radialGradient1045"
       xlink:href="#linearGradient1043"
       inkscape:collect="always" />
    <linearGradient
       id="linearGradient1043"
       inkscape:collect="always">
      <stop
         id="stop1039"
         offset="0"
         style="stop-color:#808080;stop-opacity:1;" />
      <stop
         id="stop1041"
         offset="1"
         style="stop-color:#808080;stop-opacity:0" />
    </linearGradient>
  </defs>
  <sodipodi:namedview
     inkscape:document-rotation="0"
     inkscape:window-maximized="1"
     inkscape:window-y="23"
     inkscape:window-x="0"
     inkscape:window-height="1005"
     inkscape:window-width="1680"
     fit-margin-bottom="0"
     fit-margin-right="0"
     fit-margin-left="0"
     fit-margin-top="0"
     showgrid="false"
     inkscape:current-layer="layer2"
     inkscape:document-units="mm"
     inkscape:cy="360.35715"
     inkscape:cx="118.21428"
     inkscape:zoom="1.979899"
     inkscape:pageshadow="2"
     inkscape:pageopacity="0.0"
     borderopacity="1.0"
     bordercolor="#666666"
     pagecolor="#ffffff"
     id="base" />
  <metadata
     id="metadata136">
    <rdf:RDF>
      <cc:Work
         rdf:about="">
        <dc:format>image/svg+xml</dc:format>
        <dc:type
           rdf:resource="http://purl.org/dc/dcmitype/StillImage" />
        <dc:title />
      </cc:Work>
    </rdf:RDF>
  </metadata>
  <g
     transform="translate(-2.603966e-6,-149.72405)"
     id="layer1"
     inkscape:groupmode="layer"
     inkscape:label="Layer 1">
    <g
       transform="matrix(-0.99868183,-0.29010287,0.29010287,-0.99868183,149.60658,336.59285)"
       style="opacity:0.710611;fill:none"
       id="g1471">
      <path
         d="m 128.39636,122.16178 a 47.624421,47.624421 0 0 0 9.56362,-66.668726 47.624421,47.624421 0 0 0 -66.668738,-9.563626 47.624421,47.624421 0 0 0 -9.563628,66.668732 47.624421,47.624421 0 0 0 66.668746,9.56362 z m -0.27042,-0.46442 a 47.090801,47.090801 0 0 1 -0.0496,0.0371 47.090801,47.090801 0 0 1 -65.921864,-9.45611 47.090801,47.090801 0 0 1 9.456846,-65.921758 47.090801,47.090801 0 0 1 65.921458,9.456428 47.090801,47.090801 0 0 1 -9.4068,65.88426 z"
         style="fill:url(#radialGradient1045);fill-opacity:1;stroke:none;stroke-width:0.1637;stroke-opacity:1"
         id="path1019"
         inkscape:connector-curvature="0" />
      <circle
         r="70.808197"
         cy="84.180069"
         cx="100.52199"
         id="path1403"
         style="opacity:0.61;fill:none;fill-opacity:1;stroke:none;stroke-width:2.57036;stroke-linecap:round;stroke-linejoin:bevel;stroke-miterlimit:4;stroke-dasharray:none;stroke-opacity:1" />
      <path
         sodipodi:nodetypes="cccc"
         inkscape:connector-curvature="0"
         id="path1401"
         d="m 133.69132,50.430766 3.41564,3.684245 15.411,-16.398126 z"
         style="fill:#000000;fill-opacity:1;stroke:#ff0000;stroke-width:0.972455;stroke-linecap:butt;stroke-linejoin:miter;stroke-miterlimit:4;stroke-dasharray:none;stroke-opacity:1" />
    </g>
  </g>
  <g
     inkscape:label="Layer 2"
     id="layer2"
     inkscape:groupmode="layer">
    <path
       style="opacity:1;fill:#ff0000;stroke:#000000;stroke-width:0.0357143;stop-color:#000000"
       d="m 8.2479402,104.98105 c -0.1273,-0.29245 -0.143215,-0.41823 -0.0628,-0.49631 0.11848,-0.11505 20.0719008,-11.904908 20.2893378,-11.988347 0.0991,-0.03803 0.503002,0.684787 1.519754,2.719681 l 1.384789,2.771473 -8.1413,2.617833 c -4.477715,1.4398 -9.643843,3.10147 -11.480285,3.6926 l -3.3389828,1.07479 z M 20.44096,100.5426 c 4.284574,-1.379025 8.203746,-2.63956 8.709272,-2.801189 l 0.919139,-0.29387 -0.919139,-1.843283 c -0.675823,-1.355326 -0.957601,-1.833346 -1.064435,-1.805742 -0.211214,0.05457 -15.419705,9.040444 -15.587962,9.210084 -0.126022,0.12705 -0.125398,0.13727 0.0056,0.0921 0.08105,-0.0279 3.652926,-1.17908 7.9375,-2.55811 z"
       id="path23"
       inkscape:connector-curvature="0" />
  </g>
</svg>
