<?xml version="1.0" encoding="utf-8"?>
<!-- Generator: Adobe Illustrator 19.2.1, SVG Export Plug-In . SVG Version: 6.00 Build 0)  -->
<svg version="1.1" id="レイヤー_1" xmlns="http://www.w3.org/2000/svg" xmlns:xlink="http://www.w3.org/1999/xlink" x="0px"
	 y="0px" viewBox="0 0 14791.1 2000" style="enable-background:new 0 0 14791.1 2000;" xml:space="preserve">
<g>
	<path d="M5794.8,343.1h384.3v923.2c0,84.9,48.8,119.2,131.1,119.2h654.6c82.2,0,131.1-34.3,131.1-119.2V343.1H7480v983.8
		c0,208.8-179,367-384.2,367h-916.8c-204.3,0-384.3-159.1-384.3-367V343.1z"/>
	<path d="M3972.9,1277.2h382.4c6.3,76.9,51.5,108.4,127.5,108.4h702.6c65.1,0,101.2-55.9,101.2-116.6c0-81.3-59.6-123.9-136.5-123.9
		h-765.9c-252.3,0-424.1-123-424.1-388.8c0-138.3,54.3-284.8,177.3-359c76.8-47.1,170.8-54.3,259.5-54.3h902.3
		c195.4,0,352.6,138.3,350.8,337.2v71.4H5255c-3.6-61.5-39.8-101.2-104.8-101.2h-666.4c-67.8,0-124.8,34.3-124.8,109.4
		c0,74.2,57.9,102.2,123.9,102.2h816.5c264,0,400.6,176.4,400.6,433.2c0,245.9-114,398.6-369,398.6h-975.6
		c-222.5,0-379.8-89.4-381.6-326.3L3972.9,1277.2L3972.9,1277.2z"/>
	<path d="M13067.9,343.1h385.2v923.2c0,84.9,48.9,119.2,131.1,119.2h654.5c82.2,0,131.1-34.3,131.1-119.2V343.1h384.2v983.8
		c0,207.8-179.9,367-384.2,367h-916.9c-205.2,0-385.2-158.2-385.2-367L13067.9,343.1L13067.9,343.1L13067.9,343.1z"/>
	<path d="M9826.4,1427.2l-151,266.6h-426.7L9982,343.1h501.8l733.4,1350.7h-426.9l-151-266.6H9826.4L9826.4,1427.2z M10232.4,684.9
		l-242.3,450.3h485.6L10232.4,684.9z"/>
	<path d="M7626.7,343.1h1184.5c254,0,442.1,88.6,442.1,373.4c0,123-48.7,230.6-157.2,291.2c119.2,63.3,187.1,180.7,187.1,316.3
		c0,190.8-122.2,369.8-327.3,369.8H7626.7V343.1z M8020,1385.5h730.6c71.3,0,137.4-38.8,137.4-116.6c0-76.9-66.9-116.6-137.4-116.6
		H8020V1385.5L8020,1385.5z M8020,873h730.6c65.9,0,107.6-46.1,107.6-110.3s-40.7-112-107.6-112H8020V873z"/>
	<path d="M11290.3,343.1h1287.5c256.9,0,380.8,209.8,380.8,444c0,151.8-55.1,293.8-194.4,366.3c135.7,65.9,198,169.9,198,321.9V1694
		h-384.4v-218.6c0-128.4-71.3-174.5-195.3-174.5h-696V1694h-396.1L11290.3,343.1L11290.3,343.1z M11686.4,993.2h720.6
		c93,0,155.5-83.2,155.5-170.9c0-112.1-83.2-171.8-190.8-171.8h-685.3L11686.4,993.2L11686.4,993.2L11686.4,993.2z"/>
	<path d="M1738.7,5c425.9,0,882.5,86.8,1245.9,317.4c236,151,455.7,379.8,455.7,678c0,348.2-297.4,601.4-582.3,749.6
		c-339,175.5-739.6,245-1119.4,245c-425.8,0-881.5-85.8-1245-317.3c-236-151-456.6-379.8-456.6-677.3
		C37,650.6,333.6,398.3,619.3,250C959.3,74.6,1359,5,1738.7,5L1738.7,5z M1735.1,110.8c-396,0-822.8,74.1-1166.4,281.1
		C352.6,521.2,139.2,724.7,139.2,995c0,317.5,289.3,539.7,547.9,667.3c320.1,156.3,694.4,217.1,1048,217.1
		c396.8,0,823.7-74.3,1167.3-281.3c215.2-130.2,429.5-332.7,429.5-603c0-318.2-288.5-540.7-547.9-667.2
		C2463.8,171.3,2089.5,110.8,1735.1,110.8L1735.1,110.8z M240.5,775.3l651.9-111.2l196.2-425.9L1284,664.1l651.8,111.2L1284,887.5
		l-195.4,426.8L892.4,887.5L240.5,775.3L240.5,775.3z M1673.6,1099.8l287.5-50.5l85.9-192.6l85.9,192.6l287.6,50.5l-287.6,49.7
		l-85.9,192.7l-85.9-192.7L1673.6,1099.8L1673.6,1099.8z M2268.6,586.3l287.5-49.7l85.9-193.4l85.9,193.4l287.5,49.7l-287.5,50.6
		L2642,829.6L2556,636.9L2268.6,586.3z M1961.1,1497.8l286.6-49.7l85.9-193.5l86.8,193.5l287.5,49.7l-287.5,50.6l-86.8,192.7
		l-85.9-192.7L1961.1,1497.8z M1077.8,1567.4l287.5-49.7l86.8-193.7l85.8,193.7l287.6,49.7l-287.6,50.6l-85.8,192.7l-86.8-192.7
		L1077.8,1567.4z M2523.6,1091.9l286.6-50.7l85.9-192.6l86.8,192.6l287.5,50.7l-287.5,49.7L2896,1334l-85.9-192.5L2523.6,1091.9z"/>
</g>
</svg>
